<svg xmlns="http://www.w3.org/2000/svg" xmlns:xlink="http://www.w3.org/1999/xlink" viewBox="0 0 378.95 376.63"><defs><style>.cls-1{fill:none;}.cls-2{isolation:isolate;}.cls-3{opacity:0.67;}.cls-4{fill:#0f054c;}.cls-5{opacity:0.9;}.cls-6{fill:#080344;}.cls-53,.cls-7{mix-blend-mode:lighten;}.cls-29,.cls-30,.cls-8{fill:#42e8e0;}.cls-9{fill:url(#Áåçûìÿííûé_ãðàäèåíò_24);}.cls-10{fill:url(#Áåçûìÿííûé_ãðàäèåíò_2);}.cls-11{fill:#fff;}.cls-12{fill:#2842a2;}.cls-13{fill:#adb1f2;}.cls-14{fill:#9198db;}.cls-15{fill:#24126a;}.cls-16{fill:url(#Áåçûìÿííûé_ãðàäèåíò_2-2);}.cls-17{fill:url(#Áåçûìÿííûé_ãðàäèåíò_2-3);}.cls-18{fill:url(#Áåçûìÿííûé_ãðàäèåíò_24-2);}.cls-19,.cls-28{fill:#453c9e;}.cls-20{fill:url(#Áåçûìÿííûé_ãðàäèåíò_24-3);}.cls-21{fill:url(#Áåçûìÿííûé_ãðàäèåíò_2-4);}.cls-22{fill:url(#Áåçûìÿííûé_ãðàäèåíò_2-5);}.cls-23{fill:url(#Áåçûìÿííûé_ãðàäèåíò_2-6);}.cls-24{fill:url(#Áåçûìÿííûé_ãðàäèåíò_24-4);}.cls-25{fill:#bcbeff;}.cls-26{fill:url(#Áåçûìÿííûé_ãðàäèåíò_2-7);}.cls-27,.cls-28{opacity:0.51;}.cls-29{opacity:0.1;}.cls-30{opacity:0.4;}.cls-31{fill:url(#Áåçûìÿííûé_ãðàäèåíò_2-8);}.cls-32{fill:#ff2c9c;}.cls-32,.cls-33,.cls-43{opacity:0.8;}.cls-33{fill:url(#Áåçûìÿííûé_ãðàäèåíò_19);}.cls-34{fill:url(#Áåçûìÿííûé_ãðàäèåíò_2-9);}.cls-35{fill:url(#Áåçûìÿííûé_ãðàäèåíò_24-5);}.cls-36{fill:url(#Áåçûìÿííûé_ãðàäèåíò_24-6);}.cls-37{fill:url(#Áåçûìÿííûé_ãðàäèåíò_2-10);}.cls-38{fill:url(#Áåçûìÿííûé_ãðàäèåíò_2-11);}.cls-39{opacity:0.11;}.cls-40{clip-path:url(#clip-path);}.cls-41{fill:url(#Áåçûìÿííûé_ãðàäèåíò_2-12);}.cls-42{fill:url(#Áåçûìÿííûé_ãðàäèåíò_2-13);}.cls-44{fill:url(#Áåçûìÿííûé_ãðàäèåíò_26);}.cls-45{fill:url(#Áåçûìÿííûé_ãðàäèåíò_2-14);}.cls-46{fill:url(#Áåçûìÿííûé_ãðàäèåíò_24-7);}.cls-47{fill:url(#Áåçûìÿííûé_ãðàäèåíò_24-8);}.cls-48{fill:url(#Áåçûìÿííûé_ãðàäèåíò_2-15);}.cls-49{fill:url(#Áåçûìÿííûé_ãðàäèåíò_2-16);}.cls-50{clip-path:url(#clip-path-2);}.cls-51{fill:url(#Áåçûìÿííûé_ãðàäèåíò_2-17);}.cls-52{fill:url(#Áåçûìÿííûé_ãðàäèåíò_2-18);}.cls-53{opacity:0.5;fill:url(#Áåçûìÿííûé_ãðàäèåíò_21);}</style><linearGradient id="Áåçûìÿííûé_ãðàäèåíò_24" x1="2762.72" y1="194.51" x2="2901.9" y2="194.51" gradientTransform="translate(-2743.73)" gradientUnits="userSpaceOnUse"><stop offset="0" stop-color="#5761d7"/><stop offset="0.18" stop-color="#5c66d9"/><stop offset="0.39" stop-color="#6a73df"/><stop offset="0.61" stop-color="#8289e8"/><stop offset="0.85" stop-color="#a3a7f5"/><stop offset="1" stop-color="#bcbeff"/></linearGradient><linearGradient id="Áåçûìÿííûé_ãðàäèåíò_2" x1="2809.49" y1="189.87" x2="2948.74" y2="189.87" gradientTransform="translate(-2743.73)" gradientUnits="userSpaceOnUse"><stop offset="0" stop-color="#c0bff6"/><stop offset="0.29" stop-color="#c5c4f7"/><stop offset="0.64" stop-color="#d3d2f9"/><stop offset="1" stop-color="#e9e9fd"/></linearGradient><linearGradient id="Áåçûìÿííûé_ãðàäèåíò_2-2" x1="2800.45" y1="179.15" x2="2836.1" y2="179.15" xlink:href="#Áåçûìÿííûé_ãðàäèåíò_2"/><linearGradient id="Áåçûìÿííûé_ãðàäèåíò_2-3" x1="2803.24" y1="172.73" x2="2901.79" y2="172.73" xlink:href="#Áåçûìÿííûé_ãðàäèåíò_2"/><linearGradient id="Áåçûìÿííûé_ãðàäèåíò_24-2" x1="2803.24" y1="198" x2="2820.16" y2="198" xlink:href="#Áåçûìÿííûé_ãðàäèåíò_24"/><linearGradient id="Áåçûìÿííûé_ãðàäèåíò_24-3" x1="-85.91" y1="194.51" x2="53.28" y2="194.51" gradientTransform="matrix(-1, 0, 0, 1, 279.63, 0)" xlink:href="#Áåçûìÿííûé_ãðàäèåíò_24"/><linearGradient id="Áåçûìÿííûé_ãðàäèåíò_2-4" x1="-39.14" y1="189.87" x2="100.12" y2="189.87" gradientTransform="matrix(-1, 0, 0, 1, 279.63, 0)" xlink:href="#Áåçûìÿííûé_ãðàäèåíò_2"/><linearGradient id="Áåçûìÿííûé_ãðàäèåíò_2-5" x1="-48.18" y1="179.15" x2="-12.53" y2="179.15" gradientTransform="matrix(-1, 0, 0, 1, 279.63, 0)" xlink:href="#Áåçûìÿííûé_ãðàäèåíò_2"/><linearGradient id="Áåçûìÿííûé_ãðàäèåíò_2-6" x1="-45.39" y1="172.73" x2="53.16" y2="172.73" gradientTransform="matrix(-1, 0, 0, 1, 279.63, 0)" xlink:href="#Áåçûìÿííûé_ãðàäèåíò_2"/><linearGradient id="Áåçûìÿííûé_ãðàäèåíò_24-4" x1="-45.39" y1="198" x2="-28.47" y2="198" gradientTransform="matrix(-1, 0, 0, 1, 279.63, 0)" xlink:href="#Áåçûìÿííûé_ãðàäèåíò_24"/><linearGradient id="Áåçûìÿííûé_ãðàäèåíò_2-7" x1="231.98" y1="266.9" x2="231.98" y2="212.61" gradientTransform="matrix(1, 0, 0, 1, 0, 0)" xlink:href="#Áåçûìÿííûé_ãðàäèåíò_2"/><linearGradient id="Áåçûìÿííûé_ãðàäèåíò_2-8" x1="231.98" y1="221.89" x2="231.98" y2="167.6" gradientTransform="matrix(1, 0, 0, 1, 0, 0)" xlink:href="#Áåçûìÿííûé_ãðàäèåíò_2"/><radialGradient id="Áåçûìÿííûé_ãðàäèåíò_19" cx="217.55" cy="163.13" r="2.06" gradientUnits="userSpaceOnUse"><stop offset="0" stop-color="#ff2c9c"/><stop offset="0.03" stop-color="#f62f9f"/><stop offset="0.2" stop-color="#c63eb0"/><stop offset="0.37" stop-color="#9e4bbe"/><stop offset="0.54" stop-color="#7f54c9"/><stop offset="0.7" stop-color="#695bd1"/><stop offset="0.86" stop-color="#5c60d5"/><stop offset="1" stop-color="#5761d7"/></radialGradient><linearGradient id="Áåçûìÿííûé_ãðàäèåíò_2-9" x1="2489.12" y1="249.23" x2="2589.42" y2="249.23" gradientTransform="translate(-2278.69)" xlink:href="#Áåçûìÿííûé_ãðàäèåíò_2"/><linearGradient id="Áåçûìÿííûé_ãðàäèåíò_24-5" x1="2489.12" y1="274.95" x2="2506.35" y2="274.95" gradientTransform="translate(-2278.69)" xlink:href="#Áåçûìÿííûé_ãðàäèåíò_24"/><linearGradient id="Áåçûìÿííûé_ãðàäèåíò_24-6" x1="2502.56" y1="303.87" x2="2644.21" y2="303.87" gradientTransform="translate(-2278.69)" xlink:href="#Áåçûìÿííûé_ãðàäèåíò_24"/><linearGradient id="Áåçûìÿííûé_ãðàäèåíò_2-10" x1="2550.15" y1="299.14" x2="2691.88" y2="299.14" gradientTransform="translate(-2278.69)" xlink:href="#Áåçûìÿííûé_ãðàäèåíò_2"/><linearGradient id="Áåçûìÿííûé_ãðàäèåíò_2-11" x1="2574.15" y1="307.19" x2="2610.43" y2="307.19" gradientTransform="translate(-2278.69)" xlink:href="#Áåçûìÿííûé_ãðàäèåíò_2"/><clipPath id="clip-path"><polygon id="SVGID" class="cls-1" points="298.62 194.91 214.94 243.22 225.32 304.4 308.94 256.12 298.62 194.91"/></clipPath><linearGradient id="Áåçûìÿííûé_ãðàäèåíò_2-12" x1="2496.01" y1="267.73" x2="2637.73" y2="267.73" gradientTransform="translate(-2278.69)" xlink:href="#Áåçûìÿííûé_ãðàäèåíò_2"/><linearGradient id="Áåçûìÿííûé_ãðàäèåíò_2-13" x1="2486.68" y1="257.33" x2="2522.96" y2="257.33" gradientTransform="translate(-2278.69)" xlink:href="#Áåçûìÿííûé_ãðàäèåíò_2"/><linearGradient id="Áåçûìÿííûé_ãðàäèåíò_26" x1="23.58" y1="312.7" x2="157.09" y2="312.7" gradientUnits="userSpaceOnUse"><stop offset="0" stop-color="#5761d7"/><stop offset="0.14" stop-color="#5c60d5"/><stop offset="0.3" stop-color="#695bd1"/><stop offset="0.46" stop-color="#7f54c9"/><stop offset="0.63" stop-color="#9e4bbe"/><stop offset="0.8" stop-color="#c63eb0"/><stop offset="0.97" stop-color="#f62f9f"/><stop offset="1" stop-color="#ff2c9c"/></linearGradient><linearGradient id="Áåçûìÿííûé_ãðàäèåíò_2-14" x1="-359.5" y1="249.23" x2="-259.21" y2="249.23" gradientTransform="matrix(-1, 0, 0, 1, -185.41, 0)" xlink:href="#Áåçûìÿííûé_ãðàäèåíò_2"/><linearGradient id="Áåçûìÿííûé_ãðàäèåíò_24-7" x1="-359.5" y1="274.95" x2="-342.28" y2="274.95" gradientTransform="matrix(-1, 0, 0, 1, -185.41, 0)" xlink:href="#Áåçûìÿííûé_ãðàäèåíò_24"/><linearGradient id="Áåçûìÿííûé_ãðàäèåíò_24-8" x1="-346.06" y1="303.87" x2="-204.42" y2="303.87" gradientTransform="matrix(-1, 0, 0, 1, -185.41, 0)" xlink:href="#Áåçûìÿííûé_ãðàäèåíò_24"/><linearGradient id="Áåçûìÿííûé_ãðàäèåíò_2-15" x1="-298.47" y1="299.14" x2="-156.75" y2="299.14" gradientTransform="matrix(-1, 0, 0, 1, -185.41, 0)" xlink:href="#Áåçûìÿííûé_ãðàäèåíò_2"/><linearGradient id="Áåçûìÿííûé_ãðàäèåíò_2-16" x1="-274.47" y1="307.19" x2="-238.19" y2="307.19" gradientTransform="matrix(-1, 0, 0, 1, -185.41, 0)" xlink:href="#Áåçûìÿííûé_ãðàäèåíò_2"/><clipPath id="clip-path-2"><polygon id="SVGID-2" data-name="SVGID" class="cls-1" points="85.9 194.91 169.59 243.22 159.21 304.4 75.58 256.12 85.9 194.91"/></clipPath><linearGradient id="Áåçûìÿííûé_ãðàäèåíò_2-17" x1="-352.62" y1="267.73" x2="-210.9" y2="267.73" gradientTransform="matrix(-1, 0, 0, 1, -185.41, 0)" xlink:href="#Áåçûìÿííûé_ãðàäèåíò_2"/><linearGradient id="Áåçûìÿííûé_ãðàäèåíò_2-18" x1="-361.94" y1="257.33" x2="-325.67" y2="257.33" gradientTransform="matrix(-1, 0, 0, 1, -185.41, 0)" xlink:href="#Áåçûìÿííûé_ãðàäèåíò_2"/><linearGradient id="Áåçûìÿííûé_ãðàäèåíò_21" x1="192.26" y1="199.42" x2="192.26" gradientUnits="userSpaceOnUse"><stop offset="0" stop-color="#42e8e0"/><stop offset="0.11" stop-color="#37b6bf"/><stop offset="0.22" stop-color="#2c87a1"/><stop offset="0.34" stop-color="#235f87"/><stop offset="0.46" stop-color="#1c3f72"/><stop offset="0.58" stop-color="#162561"/><stop offset="0.71" stop-color="#121355"/><stop offset="0.85" stop-color="#10084e"/><stop offset="1" stop-color="#0f054c"/></linearGradient></defs><title>acggraphics</title><g class="cls-2"><g id="Layer_2" data-name="Layer 2"><g id="Layer_1-2" data-name="Layer 1"><g class="cls-3"><polygon class="cls-4" points="189.61 376.63 0 267.45 189.35 157.84 378.95 267.02 189.61 376.63"/></g><g class="cls-3"><polygon class="cls-4" points="189.59 359.67 29.39 267.42 189.37 174.81 349.57 267.05 189.59 359.67"/></g><g class="cls-5"><polygon class="cls-6" points="189.56 339.95 63.53 267.38 189.39 194.52 315.43 267.09 189.56 339.95"/></g><g class="cls-7"><path class="cls-8" d="M72,241.68a7.76,7.76,0,0,1-3.85-1L23.75,215a2.23,2.23,0,0,1,0-3.86L104,164.85a.43.43,0,0,1,.44,0l.38.21,47.6,27.49a2.22,2.22,0,0,1,0,3.86L75.81,240.65A7.77,7.77,0,0,1,72,241.68Zm32.27-75.93-80,46.2a1.34,1.34,0,0,0,0,2.32l44.35,25.61a6.94,6.94,0,0,0,6.81,0L152,195.64a1.34,1.34,0,0,0,0-2.32Z"/></g><path class="cls-9" d="M158.18,180.11l-4.66,2.43-46.68-26.95a3.4,3.4,0,0,0-3,.13L23.27,202.2c-.77-.43-4.28-2.12-4.28-2.12l1.7,4.44h0a1,1,0,0,0,.48.53l49.16,28.38a3.4,3.4,0,0,0,3-.12l82.39-47.57a1.52,1.52,0,0,0,.7-.74h0Z"/><path class="cls-10" d="M157.46,180.88,73,229.63a3.48,3.48,0,0,1-3.12.13L19.5,200.67c-.8-.47-.7-1.27.23-1.81l84.44-48.75a3.48,3.48,0,0,1,3.12-.13l50.39,29.09C158.48,179.54,158.38,180.34,157.46,180.88Z"/><path class="cls-11" d="M157.46,180.39,73,229.14a3.42,3.42,0,0,1-3.12.13L19.5,200.18a1,1,0,0,1-.49-.54.86.86,0,0,0,.49,1l50.39,29.09a3.48,3.48,0,0,0,3.12-.13l84.45-48.75c.62-.36.86-.84.71-1.26A1.51,1.51,0,0,1,157.46,180.39Z"/><path class="cls-12" d="M47.54,219.08v-.92c0-.09.06-.13.12-.09L50.93,220a.31.31,0,0,1,.12.23v.93c0,.09-.06.13-.12.09l-3.27-1.89A.31.31,0,0,1,47.54,219.08Z"/><path class="cls-12" d="M52.43,221.9V221c0-.09,0-.13.12-.09l3.26,1.88a.28.28,0,0,1,.12.23v.93c0,.09,0,.13-.12.09l-3.26-1.89A.28.28,0,0,1,52.43,221.9Z"/><path class="cls-13" d="M47.91,207.28l70.17-40.51a1.51,1.51,0,0,1,1.51,0l25,14.46a.54.54,0,0,1,0,.93L74.44,222.65a1.51,1.51,0,0,1-1.51,0l-25-14.44A.54.54,0,0,1,47.91,207.28Z"/><path class="cls-14" d="M47.91,208.21l.25.15L118.08,168a1.51,1.51,0,0,1,1.51,0l24.74,14.31.25-.14a.54.54,0,0,0,0-.93l-25-14.46a1.51,1.51,0,0,0-1.51,0L47.91,207.28A.54.54,0,0,0,47.91,208.21Z"/><polygon class="cls-15" points="121.48 170.43 56.84 207.75 53.64 206.47 118.77 168.87 121.48 170.43"/><polygon class="cls-15" points="128.12 174.27 70.95 207.27 68.24 205.71 125.41 172.7 128.12 174.27"/><polygon class="cls-15" points="132.45 176.76 65.14 215.63 62.43 214.06 129.74 175.2 132.45 176.76"/><polygon class="cls-15" points="136.78 179.26 69.47 218.13 66.75 216.56 134.07 177.7 136.78 179.26"/><polygon class="cls-15" points="141.11 181.76 73.79 220.63 71.08 219.06 138.4 180.2 141.11 181.76"/><polygon class="cls-15" points="56.84 207.75 54.13 209.31 51.42 207.75 54.13 206.18 56.84 207.75"/><polygon class="cls-15" points="74.24 205.38 60.78 213.15 58.07 211.58 71.63 203.75 74.24 205.38"/><path class="cls-16" d="M72.89,189.13,91.81,178.2a.82.82,0,0,0,0-1.55l-12.94-7.47a3,3,0,0,0-2.67,0L57.28,180.11c-.74.43-.74,1.12,0,1.54l12.93,7.48A3,3,0,0,0,72.89,189.13Z"/><path class="cls-14" d="M57.28,180.74,76.2,169.82a2.92,2.92,0,0,1,2.67,0l12.94,7.47a1.2,1.2,0,0,1,.47.45c.19-.37,0-.79-.47-1.09l-12.94-7.47a3,3,0,0,0-2.67,0L57.28,180.11c-.52.29-.66.71-.47,1.09A1.16,1.16,0,0,1,57.28,180.74Z"/><path class="cls-17" d="M158,178.86l-10.67-63.33.86-.36-1.29-.74h0a.92.92,0,0,0-1,.07L60.63,163.76a2.38,2.38,0,0,0-1.1,2.17l10.76,63.83a.79.79,0,0,0,.45.65h0l1.27.73.21-1.18-.07,0L156.93,181A2.42,2.42,0,0,0,158,178.86Z"/><path class="cls-18" d="M61.11,165.49l-1.4-.62a1.87,1.87,0,0,0-.18,1.06l10.76,63.83a.79.79,0,0,0,.45.65h0l1.27.73.21-1.18-.07,0,4.29-2.47Z"/><path class="cls-19" d="M158.27,181.8,73,231.05c-.66.38-1.22.16-1.34-.52L60.86,166.69A2.41,2.41,0,0,1,62,164.53l85.31-49.26c.66-.38,1.22-.16,1.34.53l10.76,63.83A2.43,2.43,0,0,1,158.27,181.8Z"/><g class="cls-7"><path class="cls-8" d="M312.57,241.68a7.71,7.71,0,0,1-3.85-1L232.1,196.41a2.23,2.23,0,0,1,0-3.86l48-27.7a.45.45,0,0,1,.45,0l80.24,46.33a2.22,2.22,0,0,1,0,3.86l-44.35,25.61A7.71,7.71,0,0,1,312.57,241.68ZM280.3,165.75l-.15.09-47.61,27.48a1.35,1.35,0,0,0,0,2.32l76.62,44.24h0a7,7,0,0,0,6.82,0l44.35-25.61a1.34,1.34,0,0,0,0-2.32Z"/></g><path class="cls-20" d="M226.35,180.11l4.65,2.43,46.69-26.95a3.38,3.38,0,0,1,3,.13l80.52,46.48c.77-.43,4.28-2.12,4.28-2.12l-1.7,4.44h0a1,1,0,0,1-.47.53l-49.17,28.38a3.4,3.4,0,0,1-3.05-.12l-82.39-47.57a1.49,1.49,0,0,1-.69-.74h0Z"/><path class="cls-21" d="M227.07,180.88l84.44,48.75a3.48,3.48,0,0,0,3.12.13L365,200.67c.8-.47.7-1.27-.22-1.81l-84.44-48.75a3.5,3.5,0,0,0-3.13-.13l-50.39,29.09C226,179.54,226.14,180.34,227.07,180.88Z"/><path class="cls-11" d="M227.07,180.39l84.44,48.75a3.42,3.42,0,0,0,3.12.13L365,200.18a1,1,0,0,0,.49-.54.84.84,0,0,1-.49,1l-50.39,29.09a3.48,3.48,0,0,1-3.12-.13l-84.44-48.75c-.62-.36-.86-.84-.72-1.26A1.53,1.53,0,0,0,227.07,180.39Z"/><path class="cls-12" d="M337,219.08v-.92c0-.09-.05-.13-.12-.09L333.59,220a.31.31,0,0,0-.12.23v.93c0,.09.06.13.12.09l3.27-1.89A.28.28,0,0,0,337,219.08Z"/><path class="cls-12" d="M332.1,221.9V221c0-.09-.06-.13-.12-.09l-3.27,1.88a.28.28,0,0,0-.12.23v.93c0,.09.05.13.12.09l3.27-1.89A.31.31,0,0,0,332.1,221.9Z"/><path class="cls-13" d="M336.61,207.28l-70.17-40.51a1.51,1.51,0,0,0-1.51,0l-25,14.46a.54.54,0,0,0,0,.93l70.14,40.49a1.51,1.51,0,0,0,1.51,0l25-14.44A.54.54,0,0,0,336.61,207.28Z"/><path class="cls-14" d="M336.61,208.21l-.25.15L266.44,168a1.51,1.51,0,0,0-1.51,0L240.19,182.3l-.25-.14a.54.54,0,0,1,0-.93l25-14.46a1.51,1.51,0,0,1,1.51,0l70.17,40.51A.54.54,0,0,1,336.61,208.21Z"/><polygon class="cls-15" points="263.04 170.43 327.68 207.75 330.88 206.47 265.75 168.87 263.04 170.43"/><polygon class="cls-15" points="256.4 174.27 313.57 207.27 316.28 205.71 259.11 172.7 256.4 174.27"/><polygon class="cls-15" points="252.07 176.76 319.39 215.63 322.1 214.06 254.78 175.2 252.07 176.76"/><polygon class="cls-15" points="247.74 179.26 315.06 218.13 317.77 216.56 250.45 177.7 247.74 179.26"/><polygon class="cls-15" points="243.42 181.76 310.73 220.63 313.44 219.06 246.13 180.2 243.42 181.76"/><polygon class="cls-15" points="327.68 207.75 330.39 209.31 333.1 207.75 330.39 206.18 327.68 207.75"/><polygon class="cls-15" points="310.28 205.38 323.75 213.15 326.46 211.58 312.9 203.75 310.28 205.38"/><path class="cls-22" d="M311.63,189.13,292.71,178.2a.82.82,0,0,1,0-1.55l12.94-7.47a3,3,0,0,1,2.68,0l18.92,10.93c.74.43.74,1.12,0,1.54l-12.94,7.48A3,3,0,0,1,311.63,189.13Z"/><path class="cls-14" d="M327.25,180.74l-18.92-10.92a3,3,0,0,0-2.68,0l-12.94,7.47a1.11,1.11,0,0,0-.46.45c-.2-.37-.05-.79.46-1.09l12.94-7.47a3,3,0,0,1,2.68,0l18.92,10.93c.51.29.66.71.46,1.09A1.13,1.13,0,0,0,327.25,180.74Z"/><path class="cls-23" d="M226.48,178.86l10.68-63.33-.86-.36,1.29-.74h0a.91.91,0,0,1,1,.07l85.31,49.25a2.41,2.41,0,0,1,1.11,2.17l-10.76,63.83a.82.82,0,0,1-.45.65h0l-1.26.73-.22-1.18.07,0L227.59,181A2.42,2.42,0,0,1,226.48,178.86Z"/><path class="cls-24" d="M323.41,165.49l1.41-.62a2.05,2.05,0,0,1,.18,1.06l-10.76,63.83a.82.82,0,0,1-.45.65h0l-1.26.73-.22-1.18.07,0-4.29-2.47Z"/><path class="cls-19" d="M226.25,181.8l85.31,49.25c.66.38,1.22.16,1.34-.52l10.76-63.84a2.41,2.41,0,0,0-1.11-2.16l-85.31-49.26c-.66-.38-1.22-.16-1.34.53l-10.76,63.83A2.43,2.43,0,0,0,226.25,181.8Z"/><polygon class="cls-25" points="192.26 256.95 112.83 211.09 192.26 165.23 271.69 211.09 192.26 256.95"/><polygon class="cls-19" points="192.26 244.43 134.52 211.09 192.26 177.75 250 211.09 192.26 244.43"/><polygon class="cls-11" points="192.26 180.01 248.05 212.22 250 211.09 192.26 177.75 134.52 211.09 136.47 212.22 192.26 180.01"/><polygon class="cls-26" points="271.69 211.09 271.69 237.09 192.26 282.95 192.26 256.95 271.69 211.09"/><polygon class="cls-15" points="112.83 211.09 112.83 237.09 192.26 282.95 192.26 256.95 112.83 211.09"/><g class="cls-27"><polygon class="cls-19" points="118.21 222.77 118.21 230.96 186.88 270.6 186.88 262.42 118.21 222.77"/></g><polygon class="cls-11" points="192.26 255.46 114.12 210.34 112.83 211.09 192.26 256.95 271.69 211.09 270.4 210.34 192.26 255.46"/><polygon class="cls-19" points="259.78 229.31 259.78 233.96 204.18 266.06 204.18 261.41 259.78 229.31"/><polygon class="cls-28" points="112.83 211.09 112.83 237.09 192.26 282.95 192.26 256.95 112.83 211.09"/><polygon class="cls-8" points="169.07 255.57 154.69 247.26 154.69 248.98 169.07 257.29 169.07 255.57"/><polygon class="cls-8" points="152.62 246.08 148.72 243.83 148.72 245.55 152.62 247.8 152.62 246.08"/><polygon class="cls-8" points="134.36 235.55 126.39 230.94 126.38 232.66 134.36 237.26 134.36 235.55"/><polygon class="cls-8" points="141.64 239.75 135.87 236.42 135.87 238.13 141.63 241.46 141.64 239.75"/><polygon class="cls-8" points="147.04 242.87 143.15 240.62 143.14 242.34 147.04 244.59 147.04 242.87"/><polygon class="cls-8" points="192.34 189.2 189.82 187.74 192.34 186.29 194.87 187.74 192.34 189.2"/><polygon class="cls-29" points="197.39 192.11 194.87 190.66 197.39 189.2 199.91 190.66 197.39 192.11"/><polygon class="cls-30" points="202.43 195.02 199.91 193.57 202.43 192.11 204.96 193.57 202.43 195.02"/><polygon class="cls-8" points="207.48 197.94 204.96 196.48 207.48 195.02 210 196.48 207.48 197.94"/><polygon class="cls-30" points="212.52 200.85 210 199.39 212.52 197.94 215.04 199.39 212.52 200.85"/><polygon class="cls-8" points="217.57 203.76 215.04 202.31 217.57 200.85 220.09 202.31 217.57 203.76"/><polygon class="cls-8" points="222.61 206.67 220.09 205.22 222.61 203.76 225.13 205.22 222.61 206.67"/><polygon class="cls-8" points="227.66 209.59 225.13 208.13 227.66 206.67 230.18 208.13 227.66 209.59"/><polygon class="cls-29" points="232.7 212.5 230.18 211.04 232.7 209.59 235.22 211.04 232.7 212.5"/><polygon class="cls-8" points="187.28 192.12 184.76 190.67 187.28 189.21 189.8 190.67 187.28 192.12"/><polygon class="cls-8" points="192.32 195.03 189.8 193.58 192.32 192.12 194.84 193.58 192.32 195.03"/><polygon class="cls-8" points="197.37 197.95 194.84 196.49 197.37 195.03 199.89 196.49 197.37 197.95"/><polygon class="cls-8" points="202.41 200.86 199.89 199.4 202.41 197.95 204.93 199.4 202.41 200.86"/><polygon class="cls-8" points="207.46 203.77 204.94 202.32 207.46 200.86 209.98 202.32 207.46 203.77"/><polygon class="cls-8" points="212.5 206.69 209.98 205.23 212.5 203.77 215.02 205.23 212.5 206.69"/><polygon class="cls-8" points="217.55 209.6 215.02 208.14 217.55 206.69 220.07 208.14 217.55 209.6"/><polygon class="cls-8" points="222.59 212.51 220.07 211.05 222.59 209.6 225.11 211.05 222.59 212.51"/><polygon class="cls-8" points="227.64 215.42 225.11 213.97 227.63 212.51 230.16 213.97 227.64 215.42"/><polygon class="cls-8" points="182.21 195.05 179.69 193.59 182.21 192.13 184.74 193.59 182.21 195.05"/><polygon class="cls-8" points="187.26 197.96 184.74 196.5 187.26 195.05 189.78 196.5 187.26 197.96"/><polygon class="cls-8" points="192.3 200.87 189.78 199.42 192.3 197.96 194.82 199.42 192.3 200.87"/><polygon class="cls-29" points="197.35 203.78 194.82 202.33 197.35 200.87 199.87 202.33 197.35 203.78"/><polygon class="cls-30" points="202.39 206.7 199.87 205.24 202.39 203.78 204.91 205.24 202.39 206.7"/><polygon class="cls-30" points="207.44 209.61 204.91 208.15 207.44 206.7 209.96 208.15 207.44 209.61"/><polygon class="cls-8" points="212.48 212.52 209.96 211.07 212.48 209.61 215 211.07 212.48 212.52"/><polygon class="cls-8" points="217.53 215.44 215 213.98 217.53 212.52 220.05 213.98 217.53 215.44"/><polygon class="cls-8" points="222.57 218.35 220.05 216.89 222.57 215.44 225.09 216.89 222.57 218.35"/><polygon class="cls-30" points="177.15 197.97 174.63 196.51 177.15 195.06 179.67 196.51 177.15 197.97"/><polygon class="cls-30" points="182.19 200.88 179.67 199.43 182.19 197.97 184.72 199.43 182.19 200.88"/><polygon class="cls-29" points="187.24 203.8 184.72 202.34 187.24 200.88 189.76 202.34 187.24 203.8"/><polygon class="cls-8" points="192.28 206.71 189.76 205.25 192.28 203.8 194.8 205.25 192.28 206.71"/><polygon class="cls-8" points="197.33 209.62 194.8 208.16 197.33 206.71 199.85 208.16 197.33 209.62"/><polygon class="cls-8" points="202.37 212.53 199.85 211.08 202.37 209.62 204.89 211.08 202.37 212.53"/><polygon class="cls-30" points="207.42 215.45 204.89 213.99 207.42 212.53 209.94 213.99 207.42 215.45"/><polygon class="cls-8" points="212.46 218.36 209.94 216.9 212.46 215.45 214.98 216.9 212.46 218.36"/><polygon class="cls-8" points="217.5 221.27 214.98 219.82 217.5 218.36 220.03 219.82 217.5 221.27"/><polygon class="cls-8" points="172.08 200.9 169.56 199.44 172.08 197.98 174.6 199.44 172.08 200.9"/><polygon class="cls-8" points="177.13 203.81 174.6 202.35 177.13 200.9 179.65 202.35 177.13 203.81"/><polygon class="cls-8" points="182.17 206.72 179.65 205.26 182.17 203.81 184.69 205.26 182.17 206.72"/><polygon class="cls-8" points="187.22 209.63 184.69 208.18 187.22 206.72 189.74 208.18 187.22 209.63"/><polygon class="cls-8" points="192.26 212.55 189.74 211.09 192.26 209.63 194.78 211.09 192.26 212.55"/><polygon class="cls-8" points="197.31 215.46 194.78 214 197.31 212.55 199.83 214 197.31 215.46"/><polygon class="cls-8" points="202.35 218.37 199.83 216.91 202.35 215.46 204.87 216.91 202.35 218.37"/><polygon class="cls-8" points="207.4 221.28 204.87 219.83 207.4 218.37 209.92 219.83 207.4 221.28"/><polygon class="cls-8" points="212.44 224.2 209.92 222.74 212.44 221.28 214.96 222.74 212.44 224.2"/><polygon class="cls-8" points="167.02 203.82 164.5 202.36 167.02 200.91 169.54 202.36 167.02 203.82"/><polygon class="cls-8" points="172.06 206.73 169.54 205.28 172.06 203.82 174.59 205.28 172.06 206.73"/><polygon class="cls-30" points="177.11 209.65 174.59 208.19 177.11 206.73 179.63 208.19 177.11 209.65"/><polygon class="cls-8" points="182.15 212.56 179.63 211.1 182.15 209.65 184.67 211.1 182.15 212.56"/><polygon class="cls-29" points="187.2 215.47 184.67 214.01 187.2 212.56 189.72 214.01 187.2 215.47"/><polygon class="cls-8" points="192.24 218.38 189.72 216.93 192.24 215.47 194.76 216.93 192.24 218.38"/><polygon class="cls-8" points="197.29 221.3 194.76 219.84 197.29 218.38 199.81 219.84 197.29 221.3"/><polygon class="cls-8" points="202.33 224.21 199.81 222.75 202.33 221.3 204.85 222.75 202.33 224.21"/><polygon class="cls-8" points="207.38 227.12 204.85 225.66 207.38 224.21 209.9 225.66 207.38 227.12"/><polygon class="cls-8" points="161.95 206.75 159.43 205.29 161.95 203.83 164.47 205.29 161.95 206.75"/><polygon class="cls-8" points="167 209.66 164.47 208.2 167 206.75 169.52 208.2 167 209.66"/><polygon class="cls-30" points="172.04 212.57 169.52 211.11 172.04 209.66 174.56 211.11 172.04 212.57"/><polygon class="cls-8" points="177.09 215.48 174.56 214.03 177.09 212.57 179.61 214.03 177.09 215.48"/><polygon class="cls-8" points="182.13 218.4 179.61 216.94 182.13 215.48 184.65 216.94 182.13 218.4"/><polygon class="cls-29" points="187.18 221.31 184.65 219.85 187.18 218.4 189.7 219.85 187.18 221.31"/><polygon class="cls-30" points="192.22 224.22 189.7 222.76 192.22 221.31 194.74 222.76 192.22 224.22"/><polygon class="cls-8" points="197.26 227.13 194.74 225.68 197.26 224.22 199.79 225.68 197.26 227.13"/><polygon class="cls-29" points="202.31 230.04 199.79 228.59 202.31 227.13 204.83 228.59 202.31 230.04"/><polygon class="cls-8" points="156.89 209.67 154.37 208.21 156.89 206.76 159.41 208.21 156.89 209.67"/><polygon class="cls-30" points="161.93 212.58 159.41 211.13 161.93 209.67 164.46 211.13 161.93 212.58"/><polygon class="cls-8" points="166.98 215.49 164.46 214.04 166.98 212.58 169.5 214.04 166.98 215.49"/><polygon class="cls-8" points="172.02 218.41 169.5 216.95 172.02 215.49 174.54 216.95 172.02 218.41"/><polygon class="cls-8" points="177.07 221.32 174.54 219.86 177.07 218.41 179.59 219.86 177.07 221.32"/><polygon class="cls-8" points="182.11 224.23 179.59 222.78 182.11 221.32 184.63 222.78 182.11 224.23"/><polygon class="cls-8" points="187.16 227.14 184.63 225.69 187.16 224.23 189.68 225.69 187.16 227.14"/><polygon class="cls-30" points="192.2 230.06 189.68 228.6 192.2 227.14 194.72 228.6 192.2 230.06"/><polygon class="cls-8" points="197.25 232.97 194.72 231.51 197.25 230.06 199.77 231.51 197.25 232.97"/><polygon class="cls-8" points="151.82 212.59 149.3 211.14 151.82 209.68 154.34 211.14 151.82 212.59"/><polygon class="cls-29" points="156.87 215.51 154.34 214.05 156.87 212.59 159.39 214.05 156.87 215.51"/><polygon class="cls-8" points="161.91 218.42 159.39 216.96 161.91 215.51 164.43 216.96 161.91 218.42"/><polygon class="cls-8" points="166.96 221.33 164.43 219.87 166.96 218.42 169.48 219.88 166.96 221.33"/><polygon class="cls-8" points="172 224.24 169.48 222.79 172 221.33 174.52 222.79 172 224.24"/><polygon class="cls-8" points="177.05 227.16 174.52 225.7 177.05 224.24 179.57 225.7 177.05 227.16"/><polygon class="cls-30" points="182.09 230.07 179.57 228.61 182.09 227.16 184.61 228.61 182.09 230.07"/><polygon class="cls-8" points="187.13 232.98 184.61 231.53 187.13 230.07 189.66 231.53 187.13 232.98"/><polygon class="cls-8" points="192.18 235.89 189.66 234.44 192.18 232.98 194.7 234.44 192.18 235.89"/><polygon class="cls-25" points="192.26 211.94 112.83 166.08 192.26 120.22 271.69 166.08 192.26 211.94"/><polygon class="cls-19" points="192.26 199.42 134.52 166.08 192.26 132.74 250 166.08 192.26 199.42"/><polygon class="cls-11" points="192.26 135 248.05 167.21 250 166.08 192.26 132.74 134.52 166.08 136.47 167.21 192.26 135"/><polygon class="cls-31" points="271.69 166.08 271.69 192.08 192.26 237.94 192.26 211.94 271.69 166.08"/><polygon class="cls-15" points="112.83 166.08 112.83 192.07 192.26 237.94 192.26 211.94 112.83 166.08"/><g class="cls-27"><polygon class="cls-19" points="118.21 177.76 118.21 185.94 186.88 225.59 186.88 217.41 118.21 177.76"/></g><polygon class="cls-11" points="192.26 210.45 114.12 165.33 112.83 166.08 192.26 211.94 271.69 166.08 270.4 165.34 192.26 210.45"/><polygon class="cls-19" points="259.78 184.3 259.78 188.95 204.18 221.05 204.18 216.4 259.78 184.3"/><polygon class="cls-28" points="112.83 166.08 112.83 192.07 192.26 237.94 192.26 211.94 112.83 166.08"/><polygon class="cls-8" points="169.07 210.56 154.69 202.25 154.69 203.97 169.07 212.28 169.07 210.56"/><polygon class="cls-8" points="152.62 201.07 148.72 198.82 148.72 200.54 152.62 202.79 152.62 201.07"/><polygon class="cls-8" points="134.36 190.54 126.39 185.93 126.38 187.65 134.36 192.25 134.36 190.54"/><polygon class="cls-8" points="141.64 194.74 135.87 191.41 135.87 193.12 141.63 196.45 141.64 194.74"/><polygon class="cls-8" points="147.04 197.86 143.15 195.61 143.14 197.32 147.04 199.57 147.04 197.86"/><polygon class="cls-8" points="192.34 144.19 189.82 142.73 192.34 141.28 194.87 142.73 192.34 144.19"/><polygon class="cls-29" points="197.39 147.1 194.87 145.65 197.39 144.19 199.91 145.65 197.39 147.1"/><polygon class="cls-30" points="202.43 150.01 199.91 148.56 202.43 147.1 204.96 148.56 202.43 150.01"/><polygon class="cls-8" points="207.48 152.93 204.96 151.47 207.48 150.01 210 151.47 207.48 152.93"/><polygon class="cls-30" points="212.52 155.84 210 154.38 212.52 152.93 215.04 154.38 212.52 155.84"/><polygon class="cls-8" points="217.57 158.75 215.04 157.29 217.57 155.84 220.09 157.3 217.57 158.75"/><polygon class="cls-8" points="222.61 161.66 220.09 160.21 222.61 158.75 225.13 160.21 222.61 161.66"/><polygon class="cls-8" points="227.66 164.58 225.13 163.12 227.66 161.66 230.18 163.12 227.66 164.58"/><polygon class="cls-29" points="232.7 167.49 230.18 166.03 232.7 164.58 235.22 166.03 232.7 167.49"/><polygon class="cls-8" points="187.28 147.11 184.76 145.66 187.28 144.2 189.8 145.66 187.28 147.11"/><polygon class="cls-8" points="192.32 150.03 189.8 148.57 192.32 147.11 194.84 148.57 192.32 150.03"/><polygon class="cls-8" points="197.37 152.94 194.84 151.48 197.37 150.03 199.89 151.48 197.37 152.94"/><polygon class="cls-32" points="202.41 155.85 199.89 154.4 202.41 152.94 204.93 154.4 202.41 155.85"/><polygon class="cls-8" points="207.46 158.76 204.94 157.31 207.46 155.85 209.98 157.31 207.46 158.76"/><polygon class="cls-8" points="212.5 161.68 209.98 160.22 212.5 158.76 215.02 160.22 212.5 161.68"/><polygon class="cls-33" points="217.55 164.59 215.02 163.13 217.55 161.68 220.07 163.13 217.55 164.59"/><polygon class="cls-8" points="222.59 167.5 220.07 166.04 222.59 164.59 225.11 166.04 222.59 167.5"/><polygon class="cls-32" points="227.64 170.41 225.11 168.96 227.63 167.5 230.16 168.96 227.64 170.41"/><polygon class="cls-8" points="182.21 150.04 179.69 148.58 182.21 147.13 184.74 148.58 182.21 150.04"/><polygon class="cls-32" points="187.26 152.95 184.74 151.49 187.26 150.04 189.78 151.49 187.26 152.95"/><polygon class="cls-8" points="192.3 155.86 189.78 154.41 192.3 152.95 194.82 154.41 192.3 155.86"/><polygon class="cls-29" points="197.35 158.78 194.82 157.32 197.35 155.86 199.87 157.32 197.35 158.78"/><polygon class="cls-30" points="202.39 161.69 199.87 160.23 202.39 158.78 204.91 160.23 202.39 161.69"/><polygon class="cls-30" points="207.44 164.6 204.91 163.14 207.44 161.69 209.96 163.14 207.44 164.6"/><polygon class="cls-8" points="212.48 167.51 209.96 166.06 212.48 164.6 215 166.06 212.48 167.51"/><polygon class="cls-8" points="217.53 170.43 215 168.97 217.53 167.51 220.05 168.97 217.53 170.43"/><polygon class="cls-8" points="222.57 173.34 220.05 171.88 222.57 170.43 225.09 171.88 222.57 173.34"/><polygon class="cls-30" points="177.15 152.96 174.63 151.51 177.15 150.05 179.67 151.51 177.15 152.96"/><polygon class="cls-30" points="182.19 155.87 179.67 154.42 182.19 152.96 184.72 154.42 182.19 155.87"/><polygon class="cls-29" points="187.24 158.79 184.72 157.33 187.24 155.88 189.76 157.33 187.24 158.79"/><polygon class="cls-8" points="192.28 161.7 189.76 160.24 192.28 158.79 194.8 160.24 192.28 161.7"/><polygon class="cls-8" points="197.33 164.61 194.8 163.16 197.33 161.7 199.85 163.16 197.33 164.61"/><polygon class="cls-32" points="202.37 167.53 199.85 166.07 202.37 164.61 204.89 166.07 202.37 167.53"/><polygon class="cls-30" points="207.42 170.44 204.89 168.98 207.42 167.53 209.94 168.98 207.42 170.44"/><polygon class="cls-8" points="212.46 173.35 209.94 171.89 212.46 170.44 214.98 171.89 212.46 173.35"/><polygon class="cls-8" points="217.5 176.26 214.98 174.81 217.5 173.35 220.03 174.81 217.5 176.26"/><polygon class="cls-32" points="172.08 155.89 169.56 154.43 172.08 152.97 174.6 154.43 172.08 155.89"/><polygon class="cls-8" points="177.13 158.8 174.6 157.34 177.13 155.89 179.65 157.34 177.13 158.8"/><polygon class="cls-8" points="182.17 161.71 179.65 160.25 182.17 158.8 184.69 160.25 182.17 161.71"/><polygon class="cls-8" points="187.22 164.62 184.69 163.17 187.22 161.71 189.74 163.17 187.22 164.62"/><polygon class="cls-32" points="192.26 167.54 189.74 166.08 192.26 164.62 194.78 166.08 192.26 167.54"/><polygon class="cls-32" points="197.31 170.45 194.78 168.99 197.31 167.54 199.83 168.99 197.31 170.45"/><polygon class="cls-8" points="202.35 173.36 199.83 171.91 202.35 170.45 204.87 171.91 202.35 173.36"/><polygon class="cls-8" points="207.4 176.27 204.87 174.82 207.4 173.36 209.92 174.82 207.4 176.27"/><polygon class="cls-8" points="212.44 179.19 209.92 177.73 212.44 176.27 214.96 177.73 212.44 179.19"/><polygon class="cls-8" points="167.02 158.81 164.5 157.35 167.02 155.9 169.54 157.35 167.02 158.81"/><polygon class="cls-8" points="172.06 161.72 169.54 160.27 172.06 158.81 174.59 160.27 172.06 161.72"/><polygon class="cls-30" points="177.11 164.64 174.59 163.18 177.11 161.72 179.63 163.18 177.11 164.64"/><polygon class="cls-32" points="182.15 167.55 179.63 166.09 182.15 164.64 184.67 166.09 182.15 167.55"/><polygon class="cls-29" points="187.2 170.46 184.67 169 187.2 167.55 189.72 169 187.2 170.46"/><polygon class="cls-8" points="192.24 173.37 189.72 171.92 192.24 170.46 194.76 171.92 192.24 173.37"/><polygon class="cls-8" points="197.29 176.29 194.76 174.83 197.29 173.37 199.81 174.83 197.29 176.29"/><polygon class="cls-32" points="202.33 179.2 199.81 177.74 202.33 176.29 204.85 177.74 202.33 179.2"/><polygon class="cls-8" points="207.38 182.11 204.85 180.66 207.38 179.2 209.9 180.66 207.38 182.11"/><polygon class="cls-8" points="161.95 161.74 159.43 160.28 161.95 158.82 164.47 160.28 161.95 161.74"/><polygon class="cls-8" points="167 164.65 164.47 163.19 167 161.74 169.52 163.19 167 164.65"/><polygon class="cls-30" points="172.04 167.56 169.52 166.1 172.04 164.65 174.56 166.1 172.04 167.56"/><polygon class="cls-8" points="177.09 170.47 174.56 169.02 177.09 167.56 179.61 169.02 177.09 170.47"/><polygon class="cls-8" points="182.13 173.38 179.61 171.93 182.13 170.47 184.65 171.93 182.13 173.38"/><polygon class="cls-29" points="187.18 176.3 184.65 174.84 187.18 173.38 189.7 174.84 187.18 176.3"/><polygon class="cls-30" points="192.22 179.21 189.7 177.75 192.22 176.3 194.74 177.75 192.22 179.21"/><polygon class="cls-8" points="197.26 182.12 194.74 180.67 197.26 179.21 199.79 180.67 197.26 182.12"/><polygon class="cls-29" points="202.31 185.03 199.79 183.58 202.31 182.12 204.83 183.58 202.31 185.03"/><polygon class="cls-8" points="156.89 164.66 154.37 163.2 156.89 161.75 159.41 163.2 156.89 164.66"/><polygon class="cls-30" points="161.93 167.57 159.41 166.12 161.93 164.66 164.46 166.12 161.93 167.57"/><polygon class="cls-8" points="166.98 170.48 164.46 169.03 166.98 167.57 169.5 169.03 166.98 170.48"/><polygon class="cls-8" points="172.02 173.4 169.5 171.94 172.02 170.49 174.54 171.94 172.02 173.4"/><polygon class="cls-8" points="177.07 176.31 174.54 174.85 177.07 173.4 179.59 174.85 177.07 176.31"/><polygon class="cls-8" points="182.11 179.22 179.59 177.77 182.11 176.31 184.63 177.77 182.11 179.22"/><polygon class="cls-8" points="187.16 182.13 184.63 180.68 187.16 179.22 189.68 180.68 187.16 182.13"/><polygon class="cls-30" points="192.2 185.05 189.68 183.59 192.2 182.13 194.72 183.59 192.2 185.05"/><polygon class="cls-8" points="197.25 187.96 194.72 186.5 197.25 185.05 199.77 186.5 197.25 187.96"/><polygon class="cls-8" points="151.82 167.58 149.3 166.13 151.82 164.67 154.34 166.13 151.82 167.58"/><polygon class="cls-29" points="156.87 170.5 154.34 169.04 156.87 167.58 159.39 169.04 156.87 170.5"/><polygon class="cls-32" points="161.91 173.41 159.39 171.95 161.91 170.5 164.43 171.95 161.91 173.41"/><polygon class="cls-8" points="166.96 176.32 164.43 174.87 166.96 173.41 169.48 174.87 166.96 176.32"/><polygon class="cls-8" points="172 179.23 169.48 177.78 172 176.32 174.52 177.78 172 179.23"/><polygon class="cls-8" points="177.05 182.15 174.52 180.69 177.05 179.23 179.57 180.69 177.05 182.15"/><polygon class="cls-30" points="182.09 185.06 179.57 183.6 182.09 182.15 184.61 183.6 182.09 185.06"/><polygon class="cls-32" points="187.13 187.97 184.61 186.51 187.13 185.06 189.66 186.51 187.13 187.97"/><polygon class="cls-8" points="192.18 190.88 189.66 189.43 192.18 187.97 194.7 189.43 192.18 190.88"/><g class="cls-7"><path class="cls-8" d="M277.77,351.86a7.8,7.8,0,0,1-3.92-1.05l-45.13-26.06a2.26,2.26,0,0,1,0-3.91l81.67-47.15a.43.43,0,0,1,.44,0l48.83,28.19a2.26,2.26,0,0,1,0,3.91l-78,45A7.83,7.83,0,0,1,277.77,351.86Zm32.84-77.27-81.45,47a1.37,1.37,0,0,0,0,2.37L274.3,350a7.09,7.09,0,0,0,6.94,0l78-45a1.35,1.35,0,0,0,.69-1.18,1.36,1.36,0,0,0-.69-1.19Z"/></g><path class="cls-34" d="M310.71,255.47,299.85,191l.87-.37-1.31-.75h0a.94.94,0,0,0-1,.07L211.58,240.1a2.47,2.47,0,0,0-1.13,2.21l11,65a.83.83,0,0,0,.46.66h0l1.28.74.22-1.2-.07,0,86.29-49.82A2.49,2.49,0,0,0,310.71,255.47Z"/><path class="cls-35" d="M212.06,241.87l-1.42-.64a2,2,0,0,0-.19,1.08l11,65a.83.83,0,0,0,.46.66h0l1.28.74.22-1.2-.07,0,4.37-2.52Z"/><path class="cls-15" d="M310.94,258.46l-86.81,50.12c-.68.39-1.25.17-1.37-.53l-10.95-65a2.49,2.49,0,0,1,1.13-2.21l86.82-50.12c.67-.39,1.24-.16,1.36.53l10.95,65A2.43,2.43,0,0,1,310.94,258.46Z"/><g class="cls-27"><polygon class="cls-19" points="298.62 194.91 214.94 243.22 225.32 304.4 308.94 256.12 298.62 194.91"/></g><path class="cls-36" d="M365.52,289.21l-4.74,2.48-47.51-27.43a3.44,3.44,0,0,0-3.1.13l-81.94,47.3c-.78-.43-4.36-2.15-4.36-2.15l1.73,4.52h0a1,1,0,0,0,.49.54l50,28.89a3.47,3.47,0,0,0,3.1-.13l83.85-48.41a1.52,1.52,0,0,0,.71-.75h0Z"/><path class="cls-37" d="M364.78,290l-85.93,49.62a3.55,3.55,0,0,1-3.18.13l-51.28-29.61c-.81-.47-.71-1.29.23-1.83l85.93-49.62a3.55,3.55,0,0,1,3.18-.13L365,288.16C365.83,288.63,365.72,289.45,364.78,290Z"/><path class="cls-11" d="M364.78,289.5l-85.93,49.61a3.55,3.55,0,0,1-3.18.13l-51.28-29.6a1.1,1.1,0,0,1-.5-.56.87.87,0,0,0,.5,1.05l51.28,29.61a3.55,3.55,0,0,0,3.18-.13L364.78,290c.64-.36.88-.85.73-1.28A1.5,1.5,0,0,1,364.78,289.5Z"/><path class="cls-12" d="M252.93,328.87v-.94c0-.09,0-.13.12-.09l3.32,1.92a.29.29,0,0,1,.13.23v.94c0,.09-.06.13-.13.09l-3.32-1.91A.3.3,0,0,1,252.93,328.87Z"/><path class="cls-12" d="M257.9,331.74v-.94c0-.09.05-.13.12-.09l3.32,1.92a.29.29,0,0,1,.13.23v.94c0,.09-.06.13-.13.09L258,332A.3.3,0,0,1,257.9,331.74Z"/><path class="cls-13" d="M237.76,307.36l71.41-41.23a1.52,1.52,0,0,1,1.54,0l25.43,14.71a.55.55,0,0,1,0,1L264.76,323a1.52,1.52,0,0,1-1.54,0l-25.46-14.69A.55.55,0,0,1,237.76,307.36Z"/><path class="cls-14" d="M237.76,308.31l.26.15,71.15-41.09a1.57,1.57,0,0,1,1.54,0l25.17,14.57.26-.15a.55.55,0,0,0,0-1l-25.43-14.71a1.52,1.52,0,0,0-1.54,0l-71.41,41.23A.55.55,0,0,0,237.76,308.31Z"/><polygon class="cls-15" points="312.63 269.86 250.6 305.67 247.84 304.08 309.87 268.26 312.63 269.86"/><polygon class="cls-15" points="319.39 273.76 261.21 307.35 258.45 305.76 316.63 272.17 319.39 273.76"/><polygon class="cls-15" points="323.8 276.3 255.29 315.85 252.53 314.26 321.04 274.71 323.8 276.3"/><polygon class="cls-15" points="328.2 278.85 259.69 318.4 256.94 316.8 325.44 277.25 328.2 278.85"/><polygon class="cls-15" points="332.6 281.39 264.1 320.94 261.34 319.35 329.85 279.8 332.6 281.39"/><polygon class="cls-15" points="246.85 307.83 244.09 309.43 241.33 307.83 244.09 306.24 246.85 307.83"/><polygon class="cls-15" points="256.58 310.02 250.85 313.33 248.1 311.74 253.82 308.43 256.58 310.02"/><path class="cls-38" d="M311.92,317.34l19.26-11.12a.84.84,0,0,0,0-1.58L318,297a3,3,0,0,0-2.73,0L296,308.16a.83.83,0,0,0,0,1.57l13.17,7.61A3,3,0,0,0,311.92,317.34Z"/><path class="cls-14" d="M296,308.8l19.25-11.11a3,3,0,0,1,2.73,0l13.17,7.6a1.16,1.16,0,0,1,.47.46c.2-.38.05-.8-.47-1.11L318,297a3,3,0,0,0-2.73,0L296,308.16c-.52.3-.67.73-.47,1.11A1.17,1.17,0,0,1,296,308.8Z"/><g class="cls-39"><g class="cls-40"><path class="cls-41" d="M310.64,258.58,224.7,308.19a3.5,3.5,0,0,1-3.17.14l-51.29-29.61c-.81-.47-.71-1.29.23-1.84l85.94-49.61a3.55,3.55,0,0,1,3.18-.13l51.28,29.6C311.68,257.21,311.58,258,310.64,258.58Z"/><path class="cls-42" d="M224.45,267.47l19.25-11.11a.83.83,0,0,0,0-1.58l-13.16-7.6a3,3,0,0,0-2.73,0L208.55,258.3a.83.83,0,0,0,0,1.57l13.17,7.6A3,3,0,0,0,224.45,267.47Z"/><path class="cls-14" d="M208.55,258.94l19.26-11.11a3,3,0,0,1,2.73,0l13.16,7.6a1.13,1.13,0,0,1,.48.46c.19-.38,0-.81-.48-1.11l-13.16-7.6a3,3,0,0,0-2.73,0L208.55,258.3c-.52.3-.67.73-.47,1.11A1.24,1.24,0,0,1,208.55,258.94Z"/><path class="cls-13" d="M200.09,284.85l71.41-41.23a1.52,1.52,0,0,1,1.54,0l25.43,14.71a.55.55,0,0,1,0,.95l-71.38,41.21a1.52,1.52,0,0,1-1.54,0L200.09,285.8A.55.55,0,0,1,200.09,284.85Z"/><path class="cls-14" d="M200.09,285.8l.26.15,71.15-41.09a1.57,1.57,0,0,1,1.54,0l25.17,14.57.26-.15a.55.55,0,0,0,0-.95L273,243.62a1.52,1.52,0,0,0-1.54,0l-71.41,41.23A.55.55,0,0,0,200.09,285.8Z"/><polygon class="cls-15" points="291.82 257.33 229.6 293.25 232.07 294.67 294.28 258.75 291.82 257.33"/><polygon class="cls-15" points="285.26 253.54 226.13 287.68 228.59 289.11 287.73 254.97 285.26 253.54"/><polygon class="cls-15" points="221.71 290.23 216.19 293.42 218.66 294.84 224.18 291.66 221.71 290.23"/><polygon class="cls-15" points="226.59 294.99 222.75 297.21 225.21 298.63 229.06 296.41 226.59 294.99"/><polygon class="cls-15" points="281.15 251.17 212.08 291.05 214.55 292.47 283.62 252.59 281.15 251.17"/><polygon class="cls-15" points="277.05 248.8 207.98 288.68 210.44 290.1 279.51 250.22 277.05 248.8"/><polygon class="cls-15" points="272.94 246.43 203.87 286.31 206.33 287.73 275.4 247.85 272.94 246.43"/></g></g><polygon class="cls-8" points="246.45 281.08 253.22 277.16 253.42 278.34 246.65 282.25 246.45 281.08"/><polygon class="cls-8" points="254.31 276.54 258 274.41 258.2 275.58 254.51 277.71 254.31 276.54"/><polygon class="cls-8" points="263.74 271.09 266.41 269.55 266.61 270.73 263.94 272.27 263.74 271.09"/><polygon class="cls-8" points="261.79 272.22 262.7 271.69 262.9 272.87 261.99 273.39 261.79 272.22"/><polygon class="cls-8" points="259.1 273.77 260.76 272.82 260.96 273.99 259.3 274.95 259.1 273.77"/><polygon class="cls-8" points="251.81 272.08 254.48 270.54 254.68 271.72 252 273.26 251.81 272.08"/><polygon class="cls-8" points="245.54 275.7 250.77 272.68 250.97 273.86 245.74 276.88 245.54 275.7"/><polygon class="cls-8" points="253.04 256.65 258.27 253.63 258.47 254.8 253.24 257.83 253.04 256.65"/><polygon class="cls-8" points="250.35 258.21 252.01 257.25 252.21 258.43 250.55 259.38 250.35 258.21"/><polygon class="cls-8" points="253.91 262.03 259.14 259.01 259.34 260.18 254.11 263.2 253.91 262.03"/><polygon class="cls-8" points="251.22 263.58 252.88 262.63 253.08 263.8 251.42 264.76 251.22 263.58"/><polygon class="cls-8" points="249.18 233.44 239.33 239.13 239.13 237.96 248.98 232.26 249.18 233.44"/><polygon class="cls-8" points="252.65 231.43 250.22 232.84 250.02 231.67 252.45 230.26 252.65 231.43"/><polygon class="cls-8" points="269.96 230.29 260.11 235.99 259.91 234.81 269.77 229.12 269.96 230.29"/><polygon class="cls-8" points="273.44 228.28 271 229.69 270.8 228.52 273.24 227.11 273.44 228.28"/><polygon class="cls-8" points="242.45 240.28 239.78 241.82 239.58 240.64 242.25 239.1 242.45 240.28"/><polygon class="cls-8" points="258.69 236.79 256.02 238.34 255.82 237.16 258.49 235.62 258.69 236.79"/><polygon class="cls-8" points="248.72 236.66 243.49 239.68 243.29 238.5 248.52 235.48 248.72 236.66"/><polygon class="cls-8" points="251.41 235.1 249.75 236.06 249.55 234.88 251.21 233.93 251.41 235.1"/><polygon class="cls-8" points="257.72 231.46 252.49 234.48 252.29 233.31 257.52 230.28 257.72 231.46"/><polygon class="cls-8" points="260.41 229.9 258.75 230.86 258.55 229.69 260.21 228.73 260.41 229.9"/><polygon class="cls-8" points="258.24 234.11 255.57 235.65 255.37 234.47 258.04 232.93 258.24 234.11"/><polygon class="cls-8" points="264.5 230.49 259.27 233.51 259.07 232.33 264.3 229.31 264.5 230.49"/><polygon class="cls-8" points="267.19 228.93 265.54 229.89 265.34 228.71 266.99 227.75 267.19 228.93"/><polygon class="cls-8" points="245.7 241.35 240.24 244.5 240.04 243.33 245.5 240.17 245.7 241.35"/><polygon class="cls-8" points="250.68 238.47 246.73 240.75 246.53 239.57 250.48 237.29 250.68 238.47"/><polygon class="cls-8" points="254.38 236.33 251.72 237.87 251.52 236.69 254.19 235.15 254.38 236.33"/><polygon class="cls-8" points="280.27 224.35 274.81 227.5 274.61 226.33 280.07 223.17 280.27 224.35"/><polygon class="cls-8" points="285.25 221.47 281.31 223.75 281.11 222.57 285.06 220.29 285.25 221.47"/><polygon class="cls-8" points="288.96 219.32 286.29 220.87 286.09 219.69 288.76 218.15 288.96 219.32"/><polygon class="cls-8" points="278.14 259.83 283.6 256.68 283.8 257.85 278.34 261.01 278.14 259.83"/><polygon class="cls-8" points="273.15 262.71 277.1 260.43 277.3 261.61 273.35 263.89 273.15 262.71"/><polygon class="cls-8" points="269.45 264.85 272.12 263.31 272.32 264.49 269.65 266.03 269.45 264.85"/><polygon class="cls-8" points="276.32 263.84 281.79 260.68 281.99 261.86 276.52 265.01 276.32 263.84"/><polygon class="cls-8" points="271.34 266.72 275.29 264.44 275.49 265.61 271.54 267.89 271.34 266.72"/><polygon class="cls-8" points="267.64 268.86 270.31 267.32 270.5 268.49 267.84 270.04 267.64 268.86"/><polygon class="cls-8" points="254.27 258.87 256.12 257.81 256.32 258.98 254.47 260.05 254.27 258.87"/><polygon class="cls-8" points="250.8 260.88 253.24 259.47 253.44 260.65 251 262.05 250.8 260.88"/><polygon class="cls-8" points="246.19 244.02 240.72 247.18 240.53 246 245.99 242.84 246.19 244.02"/><polygon class="cls-8" points="251.17 241.14 247.22 243.42 247.02 242.25 250.97 239.96 251.17 241.14"/><polygon class="cls-8" points="254.87 239 252.2 240.54 252 239.36 254.67 237.82 254.87 239"/><polygon class="cls-8" points="243.02 248.79 241.18 249.86 240.98 248.69 242.82 247.62 243.02 248.79"/><polygon class="cls-8" points="246.49 246.79 244.06 248.2 243.86 247.02 246.3 245.61 246.49 246.79"/><polygon class="cls-8" points="251.46 243.92 247.53 246.19 247.33 245.01 251.26 242.74 251.46 243.92"/><polygon class="cls-8" points="256.78 266.28 258.63 265.21 258.83 266.39 256.98 267.45 256.78 266.28"/><polygon class="cls-8" points="253.31 268.28 255.75 266.88 255.95 268.05 253.51 269.46 253.31 268.28"/><polygon class="cls-8" points="248.35 271.15 252.28 268.88 252.47 270.06 248.55 272.33 248.35 271.15"/><polygon class="cls-8" points="259.59 261.92 263.52 259.65 263.72 260.82 259.79 263.09 259.59 261.92"/><polygon class="cls-8" points="253.17 265.42 258.46 262.36 258.66 263.54 253.37 266.59 253.17 265.42"/><polygon class="cls-8" points="250.48 266.97 252.13 266.02 252.33 267.19 250.68 268.15 250.48 266.97"/><polygon class="cls-8" points="247.9 268.47 249.55 267.51 249.75 268.69 248.09 269.64 247.9 268.47"/><polygon class="cls-8" points="248.25 253.29 253.48 250.27 253.68 251.44 248.45 254.47 248.25 253.29"/><polygon class="cls-8" points="245.56 254.85 247.22 253.89 247.41 255.06 245.76 256.02 245.56 254.85"/><polygon class="cls-8" points="248.61 250.13 250.45 249.07 250.65 250.24 248.81 251.31 248.61 250.13"/><polygon class="cls-8" points="255.12 252.28 256.97 251.22 257.17 252.4 255.32 253.46 255.12 252.28"/><polygon class="cls-8" points="257.75 250.77 262.18 248.21 262.38 249.39 257.95 251.94 257.75 250.77"/><polygon class="cls-8" points="262.96 247.76 265.6 246.24 265.79 247.41 263.16 248.93 262.96 247.76"/><polygon class="cls-8" points="245.14 252.14 247.57 250.73 247.77 251.91 245.34 253.32 245.14 252.14"/><polygon class="cls-8" points="244.91 249.38 246.75 248.31 246.95 249.49 245.11 250.56 244.91 249.38"/><polygon class="cls-8" points="241.44 251.39 243.87 249.98 244.07 251.15 241.63 252.56 241.44 251.39"/><polygon class="cls-8" points="252.44 253.83 254.1 252.87 254.3 254.05 252.64 255.01 252.44 253.83"/><polygon class="cls-8" points="249.86 255.32 251.52 254.37 251.72 255.54 250.06 256.5 249.86 255.32"/><polygon class="cls-8" points="262.59 268.82 268.24 265.55 268.44 266.73 262.79 270 262.59 268.82"/><polygon class="cls-8" points="256.26 272.48 261.55 269.42 261.75 270.59 256.46 273.65 256.26 272.48"/><polygon class="cls-8" points="253.57 274.03 255.22 273.07 255.42 274.25 253.77 275.21 253.57 274.03"/><polygon class="cls-8" points="250.99 275.52 252.64 274.57 252.84 275.74 251.18 276.7 250.99 275.52"/><polygon class="cls-8" points="249.57 276.34 246 278.41 246.2 279.58 249.77 277.52 249.57 276.34"/><g class="cls-43"><path class="cls-44" d="M106.75,352a8,8,0,0,1-4-1.07h0l-78-45a2.43,2.43,0,0,1,0-4.19l49.13-28.36.31.17,81.66,47.15a2.42,2.42,0,0,1,0,4.19L110.75,351A8,8,0,0,1,106.75,352Zm-3.39-2.11a6.93,6.93,0,0,0,6.79,0l45.13-26a1.22,1.22,0,0,0,.61-1.06,1.19,1.19,0,0,0-.61-1l-81.37-47-.07,0-48.45,28a1.21,1.21,0,0,0,0,2.1Z"/></g><path class="cls-45" d="M73.81,255.47,84.68,191l-.88-.37,1.32-.75h0a1,1,0,0,1,1,.07l86.81,50.12a2.43,2.43,0,0,1,1.13,2.21l-10.95,65a.81.81,0,0,1-.46.66h0l-1.29.74-.22-1.2.07,0L74.94,257.68A2.49,2.49,0,0,1,73.81,255.47Z"/><path class="cls-46" d="M172.46,241.87l1.43-.64a1.93,1.93,0,0,1,.18,1.08l-10.95,65a.81.81,0,0,1-.46.66h0l-1.29.74-.22-1.2.07,0L156.87,305Z"/><path class="cls-15" d="M73.58,258.46l86.82,50.12c.67.39,1.24.17,1.36-.53l11-65a2.46,2.46,0,0,0-1.13-2.21L84.76,190.76c-.67-.39-1.24-.16-1.36.53l-11,65A2.47,2.47,0,0,0,73.58,258.46Z"/><g class="cls-27"><polygon class="cls-19" points="85.9 194.91 169.59 243.22 159.21 304.4 75.58 256.12 85.9 194.91"/></g><path class="cls-47" d="M19,289.21l4.73,2.48,47.51-27.43a3.44,3.44,0,0,1,3.1.13l81.94,47.3c.79-.43,4.36-2.15,4.36-2.15l-1.73,4.52h0a1,1,0,0,1-.48.54l-50,28.89a3.47,3.47,0,0,1-3.1-.13L21.44,294.94a1.45,1.45,0,0,1-.7-.75h0Z"/><path class="cls-48" d="M19.74,290l85.93,49.62a3.55,3.55,0,0,0,3.18.13l51.28-29.61c.82-.47.72-1.29-.23-1.83L74,258.68a3.55,3.55,0,0,0-3.18-.13L19.51,288.16C18.7,288.63,18.8,289.45,19.74,290Z"/><path class="cls-11" d="M19.74,289.5l85.93,49.61a3.55,3.55,0,0,0,3.18.13l51.28-29.6a1.05,1.05,0,0,0,.5-.56.86.86,0,0,1-.5,1.05l-51.28,29.61a3.55,3.55,0,0,1-3.18-.13L19.74,290c-.63-.36-.88-.85-.73-1.28A1.55,1.55,0,0,0,19.74,289.5Z"/><path class="cls-12" d="M131.59,328.87v-.94c0-.09-.05-.13-.12-.09l-3.32,1.92a.28.28,0,0,0-.12.23v.94c0,.09.05.13.12.09l3.32-1.91A.3.3,0,0,0,131.59,328.87Z"/><path class="cls-12" d="M126.62,331.74v-.94c0-.09-.05-.13-.12-.09l-3.32,1.92a.28.28,0,0,0-.12.23v.94c0,.09,0,.13.12.09L126.5,332A.3.3,0,0,0,126.62,331.74Z"/><path class="cls-13" d="M146.76,307.36,75.35,266.13a1.52,1.52,0,0,0-1.54,0L48.38,280.84a.55.55,0,0,0,0,1L119.76,323a1.52,1.52,0,0,0,1.54,0l25.46-14.69A.55.55,0,0,0,146.76,307.36Z"/><path class="cls-14" d="M146.76,308.31l-.25.15L75.35,267.37a1.57,1.57,0,0,0-1.54,0L48.64,281.94l-.26-.15a.55.55,0,0,1,0-1l25.43-14.71a1.52,1.52,0,0,1,1.54,0l71.41,41.23A.55.55,0,0,1,146.76,308.31Z"/><polygon class="cls-15" points="77.87 273.3 138.31 308.2 140.93 306.53 80.64 271.72 77.87 273.3"/><polygon class="cls-15" points="73.94 278.85 128.82 310.53 130.7 308.43 76.7 277.25 73.94 278.85"/><polygon class="cls-15" points="60.73 276.3 129.23 315.85 131.99 314.26 63.49 274.71 60.73 276.3"/><polygon class="cls-15" points="56.32 278.85 124.83 318.4 127.59 316.8 59.08 277.25 56.32 278.85"/><polygon class="cls-15" points="51.92 281.39 120.42 320.94 123.18 319.35 54.68 279.8 51.92 281.39"/><polygon class="cls-15" points="137.67 307.83 140.43 309.43 143.19 307.83 140.43 306.24 137.67 307.83"/><polygon class="cls-15" points="127.94 310.02 133.67 313.33 136.43 311.74 130.7 308.43 127.94 310.02"/><path class="cls-49" d="M72.6,317.34,53.35,306.22a.83.83,0,0,1,0-1.58L66.51,297a3,3,0,0,1,2.73,0l19.25,11.12a.83.83,0,0,1,0,1.57l-13.16,7.61A3,3,0,0,1,72.6,317.34Z"/><path class="cls-14" d="M88.49,308.8,69.24,297.69a3,3,0,0,0-2.73,0l-13.16,7.6a1.13,1.13,0,0,0-.48.46c-.2-.38,0-.8.48-1.11L66.51,297a3,3,0,0,1,2.73,0l19.25,11.12c.52.3.68.73.48,1.11A1.2,1.2,0,0,0,88.49,308.8Z"/><g class="cls-39"><g class="cls-50"><path class="cls-51" d="M73.88,258.58l85.94,49.61a3.52,3.52,0,0,0,3.18.14l51.28-29.61c.81-.47.71-1.29-.23-1.84l-85.93-49.61a3.55,3.55,0,0,0-3.18-.13l-51.28,29.6C72.84,257.21,72.94,258,73.88,258.58Z"/><path class="cls-52" d="M160.08,267.47l-19.26-11.11a.84.84,0,0,1,0-1.58l13.17-7.6a3,3,0,0,1,2.72,0L176,258.3a.83.83,0,0,1,0,1.57l-13.17,7.6A3,3,0,0,1,160.08,267.47Z"/><path class="cls-14" d="M176,258.94l-19.26-11.11a3,3,0,0,0-2.72,0l-13.17,7.6a1.16,1.16,0,0,0-.47.46c-.2-.38,0-.81.47-1.11l13.17-7.6a3,3,0,0,1,2.72,0L176,258.3c.52.3.67.73.47,1.11A1.24,1.24,0,0,0,176,258.94Z"/><path class="cls-13" d="M184.43,284.85,113,243.62a1.52,1.52,0,0,0-1.54,0L86.05,258.33a.55.55,0,0,0,0,.95l71.38,41.21a1.52,1.52,0,0,0,1.54,0l25.46-14.69A.55.55,0,0,0,184.43,284.85Z"/><path class="cls-14" d="M184.43,285.8l-.25.15L113,244.86a1.57,1.57,0,0,0-1.54,0L86.31,259.43l-.26-.15a.55.55,0,0,1,0-.95l25.43-14.71a1.52,1.52,0,0,1,1.54,0l71.41,41.23A.55.55,0,0,1,184.43,285.8Z"/><polygon class="cls-15" points="92.71 257.33 154.92 293.25 152.46 294.67 90.24 258.75 92.71 257.33"/><polygon class="cls-15" points="99.26 253.54 158.39 287.68 155.93 289.11 96.8 254.97 99.26 253.54"/><polygon class="cls-15" points="162.81 290.23 168.33 293.42 165.87 294.84 160.34 291.66 162.81 290.23"/><polygon class="cls-15" points="157.93 294.99 161.78 297.21 159.31 298.63 155.47 296.41 157.93 294.99"/><polygon class="cls-15" points="103.37 251.17 172.44 291.05 169.97 292.47 100.91 252.59 103.37 251.17"/><polygon class="cls-15" points="107.48 248.8 176.55 288.68 174.08 290.1 105.01 250.22 107.48 248.8"/><polygon class="cls-15" points="111.58 246.43 180.65 286.31 178.19 287.73 109.12 247.85 111.58 246.43"/></g></g><polygon class="cls-8" points="104.64 217.58 111.41 221.5 111.61 220.32 104.83 216.41 104.64 217.58"/><polygon class="cls-8" points="112.5 222.12 116.18 224.25 116.38 223.08 112.69 220.95 112.5 222.12"/><polygon class="cls-8" points="121.92 227.57 124.59 229.11 124.79 227.93 122.12 226.39 121.92 227.57"/><polygon class="cls-8" points="119.98 226.44 120.89 226.97 121.09 225.79 120.18 225.27 119.98 226.44"/><polygon class="cls-8" points="117.29 224.89 118.94 225.84 119.14 224.67 117.48 223.71 117.29 224.89"/><polygon class="cls-8" points="109.99 226.57 112.66 228.12 112.86 226.94 110.19 225.4 109.99 226.57"/><polygon class="cls-8" points="103.73 222.96 108.96 225.98 109.16 224.8 103.93 221.78 103.73 222.96"/><polygon class="cls-8" points="111.23 242.01 116.46 245.03 116.66 243.86 111.42 240.83 111.23 242.01"/><polygon class="cls-8" points="108.54 240.45 110.19 241.41 110.39 240.24 108.73 239.28 108.54 240.45"/><polygon class="cls-8" points="112.1 236.63 117.33 239.65 117.53 238.48 112.3 235.46 112.1 236.63"/><polygon class="cls-8" points="109.41 235.07 111.06 236.03 111.26 234.86 109.61 233.9 109.41 235.07"/><polygon class="cls-8" points="107.37 265.22 97.51 259.53 97.31 260.7 107.17 266.4 107.37 265.22"/><polygon class="cls-8" points="110.84 267.23 108.4 265.82 108.2 266.99 110.64 268.4 110.84 267.23"/><polygon class="cls-8" points="128.15 268.37 118.3 262.68 118.1 263.85 127.95 269.55 128.15 268.37"/><polygon class="cls-8" points="131.62 270.38 129.19 268.97 128.99 270.14 131.42 271.55 131.62 270.38"/><polygon class="cls-8" points="100.64 258.38 97.97 256.84 97.77 258.02 100.44 259.56 100.64 258.38"/><polygon class="cls-8" points="116.88 261.87 114.21 260.32 114.01 261.5 116.68 263.04 116.88 261.87"/><polygon class="cls-8" points="106.9 262 101.67 258.98 101.47 260.16 106.7 263.18 106.9 262"/><polygon class="cls-8" points="109.59 263.56 107.94 262.6 107.74 263.78 109.39 264.74 109.59 263.56"/><polygon class="cls-8" points="115.9 267.2 110.67 264.18 110.48 265.35 115.7 268.38 115.9 267.2"/><polygon class="cls-8" points="118.59 268.76 116.94 267.8 116.74 268.98 118.4 269.93 118.59 268.76"/><polygon class="cls-8" points="116.42 264.55 113.75 263.01 113.56 264.19 116.22 265.73 116.42 264.55"/><polygon class="cls-8" points="122.69 268.17 117.46 265.15 117.26 266.33 122.49 269.35 122.69 268.17"/><polygon class="cls-8" points="125.38 269.73 123.72 268.77 123.52 269.95 125.18 270.9 125.38 269.73"/><polygon class="cls-8" points="103.88 257.31 98.42 254.16 98.22 255.33 103.68 258.49 103.88 257.31"/><polygon class="cls-8" points="108.87 260.19 104.92 257.91 104.72 259.08 108.67 261.37 108.87 260.19"/><polygon class="cls-8" points="112.57 262.33 109.9 260.79 109.7 261.97 112.37 263.51 112.57 262.33"/><polygon class="cls-8" points="138.46 274.31 133 271.16 132.8 272.33 138.26 275.49 138.46 274.31"/><polygon class="cls-8" points="143.44 277.19 139.49 274.91 139.29 276.09 143.24 278.37 143.44 277.19"/><polygon class="cls-8" points="147.14 279.33 144.47 277.79 144.28 278.97 146.94 280.51 147.14 279.33"/><polygon class="cls-8" points="136.32 238.83 141.78 241.98 141.98 240.81 136.52 237.65 136.32 238.83"/><polygon class="cls-8" points="131.34 235.95 135.29 238.23 135.49 237.05 131.54 234.77 131.34 235.95"/><polygon class="cls-8" points="127.64 233.81 130.31 235.35 130.5 234.17 127.83 232.63 127.64 233.81"/><polygon class="cls-8" points="134.51 234.82 139.97 237.98 140.17 236.8 134.71 233.65 134.51 234.82"/><polygon class="cls-8" points="129.53 231.94 133.48 234.22 133.68 233.05 129.72 230.76 129.53 231.94"/><polygon class="cls-8" points="125.82 229.8 128.49 231.34 128.69 230.17 126.02 228.63 125.82 229.8"/><polygon class="cls-8" points="112.46 239.79 114.3 240.85 114.5 239.68 112.66 238.61 112.46 239.79"/><polygon class="cls-8" points="108.99 237.78 111.42 239.19 111.62 238.01 109.19 236.61 108.99 237.78"/><polygon class="cls-8" points="104.37 254.64 98.91 251.49 98.71 252.66 104.17 255.82 104.37 254.64"/><polygon class="cls-8" points="109.36 257.52 105.41 255.24 105.21 256.42 109.16 258.7 109.36 257.52"/><polygon class="cls-8" points="113.06 259.66 110.39 258.12 110.19 259.3 112.86 260.84 113.06 259.66"/><polygon class="cls-8" points="101.21 249.87 99.36 248.8 99.17 249.98 101.01 251.04 101.21 249.87"/><polygon class="cls-8" points="104.68 251.87 102.24 250.46 102.04 251.64 104.48 253.05 104.68 251.87"/><polygon class="cls-8" points="109.64 254.74 105.72 252.47 105.52 253.65 109.44 255.92 109.64 254.74"/><polygon class="cls-8" points="114.97 232.38 116.81 233.45 117.01 232.27 115.17 231.21 114.97 232.38"/><polygon class="cls-8" points="111.5 230.38 113.93 231.78 114.13 230.61 111.69 229.2 111.5 230.38"/><polygon class="cls-8" points="106.53 227.51 110.46 229.78 110.66 228.6 106.73 226.33 106.53 227.51"/><polygon class="cls-8" points="117.78 236.74 121.71 239.01 121.9 237.84 117.98 235.57 117.78 236.74"/><polygon class="cls-8" points="111.35 233.24 116.65 236.3 116.85 235.13 111.55 232.07 111.35 233.24"/><polygon class="cls-8" points="108.66 231.69 110.32 232.64 110.52 231.47 108.86 230.51 108.66 231.69"/><polygon class="cls-8" points="106.08 230.19 107.74 231.15 107.94 229.97 106.28 229.02 106.08 230.19"/><polygon class="cls-8" points="106.44 245.37 111.67 248.39 111.86 247.22 106.63 244.19 106.44 245.37"/><polygon class="cls-8" points="103.75 243.81 105.4 244.77 105.6 243.6 103.94 242.64 103.75 243.81"/><polygon class="cls-8" points="106.8 248.53 108.64 249.59 108.84 248.42 106.99 247.35 106.8 248.53"/><polygon class="cls-8" points="113.31 246.38 115.15 247.44 115.35 246.26 113.51 245.2 113.31 246.38"/><polygon class="cls-8" points="115.94 247.89 120.36 250.45 120.56 249.27 116.14 246.72 115.94 247.89"/><polygon class="cls-8" points="121.15 250.9 123.78 252.42 123.98 251.25 121.35 249.73 121.15 250.9"/><polygon class="cls-8" points="103.32 246.52 105.76 247.93 105.96 246.75 103.52 245.34 103.32 246.52"/><polygon class="cls-8" points="103.09 249.28 104.94 250.35 105.14 249.17 103.29 248.1 103.09 249.28"/><polygon class="cls-8" points="99.62 247.27 102.06 248.68 102.26 247.51 99.82 246.1 99.62 247.27"/><polygon class="cls-8" points="110.63 244.83 112.29 245.79 112.49 244.61 110.83 243.66 110.63 244.83"/><polygon class="cls-8" points="108.05 243.34 109.7 244.29 109.9 243.12 108.25 242.16 108.05 243.34"/><polygon class="cls-8" points="120.77 229.84 126.42 233.11 126.62 231.93 120.97 228.66 120.77 229.84"/><polygon class="cls-8" points="114.44 226.18 119.74 229.24 119.94 228.07 114.64 225.01 114.44 226.18"/><polygon class="cls-8" points="111.75 224.63 113.41 225.59 113.61 224.41 111.95 223.45 111.75 224.63"/><polygon class="cls-8" points="109.17 223.13 110.83 224.09 111.03 222.92 109.37 221.96 109.17 223.13"/><polygon class="cls-8" points="107.76 222.32 104.19 220.25 104.38 219.08 107.96 221.14 107.76 222.32"/><polygon class="cls-15" points="71.89 269.86 74.65 271.45 77.41 269.86 74.65 268.26 71.89 269.86"/><polygon class="cls-15" points="65.13 273.76 70.86 277.06 73.61 275.47 67.89 272.17 65.13 273.76"/><polygon class="cls-53" points="250 166.08 250 0 134.52 0 134.52 166.08 192.26 199.42 250 166.08"/></g></g></g></svg>