<?xml version="1.0" encoding="utf-8"?>
<!-- Generator: Adobe Illustrator 22.1.0, SVG Export Plug-In . SVG Version: 6.00 Build 0)  -->
<svg version="1.1" id="Layer_1" xmlns="http://www.w3.org/2000/svg" xmlns:xlink="http://www.w3.org/1999/xlink" x="0px" y="0px"
	 viewBox="0 0 936 553" style="enable-background:new 0 0 936 553;" xml:space="preserve">
<style type="text/css">
	.st0{fill:#0F054C;}
	.st1{opacity:0.81;fill:url(#SVGID_1_);}
	.st2{opacity:0.99;}
	.st3{opacity:0.8;fill:url(#SVGID_2_);enable-background:new    ;}
	.st4{opacity:0.1;fill:#42E8E0;enable-background:new    ;}
</style>
<rect transform="matrix(-1 -1.224647e-16 1.224647e-16 -1 936 553)" class="st0" width="936" height="553"/>
<radialGradient id="SVGID_1_" cx="304.6176" cy="198.2539" r="317.881" gradientTransform="matrix(-1.4583 0 0 1.3825 1006.6782 23.6121)" gradientUnits="userSpaceOnUse">
	<stop  offset="0" style="stop-color:#5761D7"/>
	<stop  offset="3.110474e-02" style="stop-color:#525BCE"/>
	<stop  offset="0.1763" style="stop-color:#3E41A6"/>
	<stop  offset="0.3263" style="stop-color:#2D2B85"/>
	<stop  offset="0.4803" style="stop-color:#201A6C"/>
	<stop  offset="0.6397" style="stop-color:#160E5A"/>
	<stop  offset="0.8079" style="stop-color:#11074F"/>
	<stop  offset="1" style="stop-color:#0F054C"/>
</radialGradient>
<polygon class="st1" points="35.5,553 910.5,553 910.5,0 35.5,0 "/>
<g id="Layer_1-2" class="st2">
	
		<radialGradient id="SVGID_2_" cx="473.3392" cy="84.2574" r="439.34" gradientTransform="matrix(1.0544 0 0 -1.0441 -48.1943 575.3709)" gradientUnits="userSpaceOnUse">
		<stop  offset="0" style="stop-color:#FF2C9C"/>
		<stop  offset="3.000000e-02" style="stop-color:#F62F9F"/>
		<stop  offset="0.2" style="stop-color:#C63EB0"/>
		<stop  offset="0.37" style="stop-color:#9E4BBE"/>
		<stop  offset="0.54" style="stop-color:#7F54C9"/>
		<stop  offset="0.7" style="stop-color:#695BD1"/>
		<stop  offset="0.86" style="stop-color:#5C60D5"/>
		<stop  offset="1" style="stop-color:#5761D7"/>
	</radialGradient>
	<path class="st3" d="M1079.6,168c-1.5-0.7-3.2-0.7-4.7,0c-1,0.6-1.2,1.4-0.7,2.1l-73.3,41.9v52.9L983,275.1v57.5l-61.2,35l-9.5-5.5
		l47.2-27v-31.6l-0.2-0.1l-53.6-30.7v-10.5l30.3-17.3c1.4,0.6,3,0.5,4.3-0.2c1.3-0.8,1.3-2,0-2.7c-1.5-0.8-3.2-0.8-4.7,0
		c-1.2,0.7-1.3,1.7-0.3,2.5l-30.4,17.4v11.6l0.2,0.1l53.6,30.7V335L923,355.2V342l16.3-9.3c1.4,0.6,3,0.5,4.3-0.2
		c1.3-0.8,1.3-2,0-2.7c-1.5-0.8-3.2-0.8-4.7,0c-1.2,0.7-1.3,1.7-0.3,2.5l-16.3,9.3v14l-10.8,6.2l-12.7-7.3v-22.9l24-13.8V302
		l-0.2-0.1L872,273c0.9-0.7,0.8-1.8-0.3-2.5c-1.5-0.8-3.2-0.8-4.7,0c-1.3,0.7-1.3,2,0,2.7s2.9,0.7,4.3,0.2l50.8,29v15l-23.3,13.3
		v-15.8l-0.2-0.1l-31-17.8c0.9-0.8,0.8-1.8-0.3-2.5c-1.5-0.7-3.2-0.7-4.7,0c-0.8,0.2-1.2,1.1-0.9,1.8c0.1,0.4,0.5,0.8,0.9,0.9
		c1.3,0.7,2.9,0.7,4.3,0.2l31.2,17.9v38.6l-9-5.1l-14.8,8.4l-13.4-7.6v-18.5l-0.2-0.1l-35.3-20.2v-17.5c0.7,0,1.4-0.2,2-0.5
		c1.3-0.8,1.3-2,0-2.7c-1.5-0.8-3.2-0.8-4.7,0c-1.3,0.7-1.3,2,0,2.7c0.6,0.3,1.3,0.5,2,0.5v17.9l0.2,0.1l35.3,20.2v17.8l-57.5-32.9
		v-34.8l31.2-17.8h28.6l0.1-0.1l49.1-28.1c1.4,0.5,3,0.5,4.3-0.2c1.3-0.8,1.3-2,0-2.7c-1.5-0.8-3.2-0.8-4.7,0
		c-1.2,0.7-1.3,1.7-0.3,2.5L862.4,263h-27.1l90.2-51.6c1.4,0.5,3,0.5,4.3-0.2s1.3-2,0-2.7c-1.5-0.8-3.2-0.8-4.7,0
		c-1.2,0.7-1.3,1.7-0.3,2.5l-122.7,70.1v35.7l0.2,0.1l71.4,40.8l-14.4,8.2l-122.1-69.7v-41.5l-0.2-0.1l-41.5-23.7
		c0.9-0.8,0.8-1.8-0.3-2.5c-1.5-0.7-3.2-0.7-4.7,0c-1.3,0.8-1.3,2,0,2.7s2.9,0.7,4.3,0.2l41.6,23.8v41.6l0.2,0.1l121.7,69.6
		l-13.7,7.8L724,305.3h-71.9l-44.9-25.7v-39.5c0.5-0.1,0.9-0.2,1.3-0.4c0.8-0.2,1.2-1.1,0.9-1.8c-0.1-0.4-0.5-0.8-0.9-0.9
		c-1.5-0.7-3.3-0.7-4.7,0c-0.8,0.2-1.2,1.1-0.9,1.8c0.1,0.4,0.5,0.8,0.9,0.9c0.8,0.4,1.8,0.6,2.7,0.5V280l0.2,0.1L652,306h71.9
		l101.9,58.2h-20.5l-34.8-19.8h-26.7l-0.1,0.1l-37.1,21.2c-1.4-0.6-3-0.5-4.3,0.2c-0.8,0.2-1.2,1.1-0.9,1.8c0.1,0.4,0.5,0.8,0.9,0.9
		c1.5,0.7,3.2,0.7,4.7,0c1.2-0.7,1.3-1.7,0.3-2.5l36.6-21h26.4l34.8,19.8h22l16.9,9.7l-36.5,20.9l-10.4-5.9V374l-26.4-15.1
		c0.9-0.8,0.8-1.8-0.3-2.5c-1.5-0.7-3.2-0.7-4.7,0c-0.8,0.2-1.2,1.1-0.9,1.8c0.1,0.4,0.5,0.8,0.9,0.9c1.3,0.7,2.9,0.7,4.3,0.2
		l26.4,15.1v14.7L768.3,373h-13.4h-0.1l-15.9,9.1c-1.4-0.5-3-0.5-4.3,0.2s-1.3,2,0,2.7c1.5,0.8,3.2,0.8,4.7,0
		c1.2-0.7,1.3-1.7,0.3-2.5l15.4-8.8h12.9l38.7,22.1l-7,4l22.4,12.9l-10.5,6h-15.8l-11.4-6.5c0.9-0.7,0.8-1.8-0.4-2.4
		c-1.5-0.8-3.2-0.8-4.7,0c-1.3,0.7-1.3,2,0,2.7c1.4,0.7,3,0.7,4.4,0.2l11.9,6.8h14.8l-26.8,15.4l-63.1-36.1H675h-0.1l-25.5,14.6
		c-1.4-0.6-3-0.5-4.3,0.2c-1.3,0.8-1.3,2,0,2.7c1.5,0.8,3.2,0.8,4.7,0c1.2-0.7,1.3-1.7,0.3-2.5l25.1-14.3h45l48.6,27.8H748
		l-20.4-11.6c0.9-0.8,0.8-1.8-0.3-2.5c-1.5-0.7-3.2-0.7-4.7,0c-1.3,0.8-1.3,2,0,2.7s2.9,0.7,4.3,0.2l20.9,12h22.3l12.6,7.2l-32,18.3
		H648.4l-79.5-45.4c0.9-0.7,0.8-1.8-0.3-2.5c-1.5-0.8-3.2-0.8-4.7,0c-1.3,0.7-1.3,2,0,2.7s2.9,0.7,4.3,0.2l80,45.8h101.2l-12.7,7.3
		H661h-0.1l-37.4,21.4c-1.4-0.5-3-0.5-4.3,0.2s-1.3,2,0,2.7c1.5,0.8,3.2,0.8,4.7,0c1.2-0.7,1.3-1.7,0.3-2.5l36.9-21.1h75.8h0.1
		l85.9-49.1l9.5,5.5l-90.3,51.6h-66H676L596.3,516H485.9l-21.4-12.3v0.9l21.2,12.1h110.8h0.1l50-28.6V505l-32.9,18.8
		c-1.4-0.5-3-0.5-4.3,0.2s-1.3,2,0,2.7c1.5,0.8,3.2,0.8,4.7,0c1.2-0.7,1.3-1.7,0.3-2.5l33-18.9v-17.7h-0.2l29.1-16.7h66h0.1
		l90.7-51.9l10.8,6.2l-176,100.6V544h0.7v-17.8l176.1-100.6l13.4,7.6l-90.9,52v9.3l-16.1,9.2v21.5L719.9,543c-1.4-0.5-3-0.5-4.3,0.2
		c-0.4,0.2-0.7,0.5-0.9,1h6.5c-0.1-0.3-0.3-0.5-0.6-0.7l31.2-17.8v-21.5l15.3-8.8v34.2l9.1,5.2l-16.3,9.3h1.5l15.6-8.9l15.6,8.9h1.5
		L768,529.2v-43.5l90.8-51.9l12.2,7l-64.3,36.7c-1.4-0.6-3-0.5-4.3,0.2c-0.8,0.2-1.2,1.1-0.9,1.8c0.1,0.4,0.5,0.8,0.9,0.9
		c1.5,0.7,3.2,0.7,4.7,0c1.2-0.7,1.3-1.7,0.3-2.5l64.3-36.7l11.8,6.7l-76.9,43.9h-20.9c-0.2-0.4-0.5-0.8-0.9-1
		c-1.5-0.8-3.2-0.8-4.7,0c-1.3,0.8-1.3,2,0,2.7c1.5,0.8,3.2,0.8,4.7,0c0.4-0.2,0.7-0.6,0.9-1h21.1l0.1-0.1l77.4-44.2l4.7,2.7
		l3.7-2.1l18.4,10.5v14.6l-15.2,8.7l0,0H872h-0.1l-26.2,15c-1.4-0.6-3-0.5-4.3,0.2c-1.3,0.8-1.3,2,0,2.7c1.5,0.8,3.2,0.8,4.7,0
		c1.2-0.7,1.3-1.7,0.3-2.5l25.7-14.7h22.4l-44.7,25.6c-1.4-0.6-3-0.5-4.4,0.1c-1.3,0.8-1.3,2,0,2.7c1.5,0.8,3.2,0.8,4.7,0
		c1.2-0.7,1.3-1.7,0.4-2.4l55.8-31.9v7l-33.2,19v13.4l-27,15.5c-1.4-0.6-3-0.5-4.3,0.2c-0.8,0.2-1.2,1.1-0.9,1.8
		c0.1,0.4,0.5,0.8,0.9,0.9c1.5,0.7,3.2,0.7,4.7,0c1.2-0.7,1.3-1.7,0.3-2.5l27-15.4v-13.1l33.2-19v-7.9l4.6-2.7v-15.5l-18.4-10.5
		l12.1-6.9l37.9,21.6v24.6l-25.7,14.7c-1.4-0.6-3-0.5-4.4,0.2c-1.3,0.7-1.3,2,0,2.7c1.5,0.8,3.2,0.8,4.7,0c1.1-0.7,1.3-1.7,0.4-2.4
		l25-14.3v19.9L923.5,520v24.2h0.7v-23.7l19-10.9v34.6h0.7v-81.3l-37.6-21.7l13.6-7.8l49.6,28.3v67.5l23.8,13.6v1.3h0.7v-1.8
		l-23.8-13.6v-67.5l-49.6-28.3l10.1-5.8l66.8,38.2v57.5l37,21.1h1.5l-37.7-21.6v-57.5l-66.8-38l16.3-9.3l111.2,63.6v28.6l38.1,21.8
		v-0.9l-37.4-21.4v-28.6l-62.6-35.8h49.5l50.4,28.8v-0.9l-50.3-28.7h-51l-47.2-26.9l19-10.8l40.7,23.3h65.4l23.5,13.4v-0.9l-5.2-3
		h5.2v-0.7h-6.5l-16.9-9.6h-65.4l-11.4-6.5h27.8l0.1-0.1l13.9-8h58.1l0.2,0.1v-0.9h-56.9l15.7-9c1.4,0.6,3,0.5,4.3-0.2
		c0.8-0.2,1.2-1.1,0.9-1.8c-0.1-0.4-0.5-0.8-0.9-0.9c-1.5-0.7-3.2-0.7-4.7,0c-1.2,0.7-1.3,1.7-0.3,2.5l-30.5,17.4h-28.9l-27.5-15.7
		l10.2-5.8l-6.5-3.7h19l24.8,14.2c-0.9,0.7-0.8,1.8,0.3,2.5c1.5,0.7,3.2,0.7,4.7,0c0.8-0.2,1.2-1.1,0.9-1.8
		c-0.1-0.4-0.5-0.8-0.9-0.9c-1.3-0.7-2.9-0.7-4.3-0.2L991,395.5h-20.5l-13.9-7.9l8.5-4.9h15.2l13.3-7.6h9.9l22.5,12.8
		c-1.1,0.8-0.9,1.8,0.3,2.5c1.5,0.7,3.2,0.7,4.7,0c0.8-0.2,1.2-1.1,0.9-1.8c-0.1-0.4-0.5-0.8-0.9-0.9c-1.3-0.7-2.8-0.7-4.2-0.2
		l-23-13.2h-10.3l-13.3,7.6h-13.6l27.3-15.7h14.8l30.7,17.6h57.8v-0.6h-57.7l-30.7-17.6h-15.2l-0.1,0.1l-37.6,21.5l-9.9-5.6
		l42.5-24.3h30l24.7,14.1h53.8v-0.7h-53.5l-23.4-13.4h77.1v-0.7H988.4l-0.1,0.1l-43,24.6l-11.2-6.4l59.3-33.9h103.7v-0.7h-75.6
		l75.6-43.2v-0.9l-77.1,44.1h-26.1l56.2-32.1v-7.1l26.9-15.4c1.4,0.5,3,0.5,4.3-0.2s1.3-2,0-2.7c-1.5-0.7-3.2-0.7-4.7,0
		c-1.2,0.7-1.3,1.7-0.3,2.5l-14.6,8.4v-19.4l35.5-20.3v-0.9l-36.2,20.7v20.3l-11.5,6.6v7.1l-56.7,32.4l0.2,0.3l-59.6,34l-10.8-6.2
		l61.2-35v-57.5l113.4-64.8v-0.9l-95.5,54.6v-52.1l73.1-41.8l0.1,0.1c1.5,0.8,3.2,0.8,4.7,0C1080.9,169.9,1080.9,168.7,1079.6,168z
		 M976.9,400L889,450.2L801.1,400l87.9-50.2L976.9,400z"/>
	<path class="st4" d="M769.6,159.1l-14.8,8.6v27.5l-131.6,76l-10-5.8l67.9-39.2v-7l12-7v-16.1l23.3-13.5c1,0.4,2.2,0.4,3.2-0.1
		c0.6-0.2,0.8-0.9,0.6-1.4c-0.1-0.3-0.3-0.5-0.6-0.6c-1.1-0.6-2.4-0.6-3.5,0c-0.9,0.5-1,1.3-0.3,1.9l-23.3,13.4v16.1l-11.5,6.6
		v-25.8l-0.1-0.1l-6.6-3.8l39.8-23V140l28.3-16.3c1,0.4,2.2,0.4,3.2-0.1c0.6-0.2,0.8-0.9,0.6-1.4c-0.1-0.3-0.3-0.5-0.6-0.6
		c-1.1-0.6-2.4-0.6-3.5,0c-0.9,0.5-1,1.3-0.3,1.9l-28.3,16.2v25.8l-39.8,23L609,151.2v-28.9c0.5,0,1-0.2,1.5-0.4
		c0.6-0.2,0.8-0.9,0.6-1.4c-0.1-0.3-0.3-0.5-0.6-0.6c-1.1-0.6-2.4-0.6-3.5,0c-0.6,0.2-0.8,0.9-0.6,1.4c0.1,0.3,0.3,0.5,0.6,0.6
		c0.5,0.2,1,0.4,1.5,0.4v29.2l0.1,0.1l38.9,22.5h-28.3l-22.9-13.2c0.7-0.6,0.6-1.4-0.3-1.9c-1.1-0.6-2.4-0.6-3.5,0
		c-0.6,0.2-0.8,0.9-0.6,1.4c0.1,0.3,0.3,0.5,0.6,0.6c1,0.5,2.2,0.6,3.2,0.1l23.3,13.5h29.5l32,18.5v32.8l-67.9,39.2l-9.1-5.3
		l48-27.7c1,0.4,2.2,0.4,3.2-0.1c0.6-0.2,0.8-0.9,0.6-1.4c-0.1-0.3-0.3-0.5-0.6-0.6c-1.1-0.6-2.4-0.6-3.5,0c-0.9,0.5-1,1.3-0.3,1.9
		l-48,27.7l-8.8-5.1l57.5-33.3h15.6c0.1,0.3,0.4,0.6,0.7,0.7c1.1,0.6,2.4,0.6,3.5,0c0.6-0.2,0.8-0.9,0.6-1.4
		c-0.1-0.3-0.3-0.5-0.6-0.6c-1.1-0.6-2.4-0.6-3.5,0c-0.3,0.2-0.6,0.4-0.7,0.7h-15.7h-0.1L593.6,254l-3.5-2l-0.1,0.1l-2.6,1.5
		l-13.8-8v-11L585,228l0,0h17.8l19.7-11.3c1,0.4,2.2,0.4,3.2-0.1c0.6-0.2,0.8-0.9,0.6-1.4c-0.1-0.3-0.3-0.5-0.6-0.6
		c-1.1-0.6-2.4-0.6-3.5,0c-0.9,0.5-1,1.3-0.3,1.9l-19.2,11.1h-16.8l33.4-19.3c1.1,0.4,2.3,0.4,3.3-0.1c0.6-0.2,0.8-0.9,0.6-1.4
		c-0.1-0.3-0.3-0.5-0.6-0.6c-1.1-0.6-2.4-0.6-3.5,0c-0.9,0.5-1,1.3-0.3,1.8l-41.7,24.1v-5.3l24.8-14.3v-10.3l20.2-11.7
		c1,0.4,2.2,0.4,3.2-0.1c0.6-0.2,0.8-0.9,0.6-1.4c-0.1-0.3-0.3-0.5-0.6-0.6c-1.1-0.6-2.4-0.6-3.5,0c-0.9,0.5-1,1.3-0.3,1.9
		L601.3,202v10.1l-24.8,14.2v6l-3.5,2V246l13.8,8l-9,5.2l-28.4-16.4v-18.6l19.2-11.1c1.1,0.5,2.3,0.4,3.3-0.1
		c0.6-0.2,0.8-0.9,0.6-1.4c-0.1-0.3-0.3-0.5-0.6-0.6c-1.1-0.6-2.4-0.6-3.5,0c-0.9,0.5-1,1.3-0.3,1.8l-18.7,10.8v-15l14.8-8.5v-28.3
		c0.5,0,1-0.2,1.5-0.4c0.6-0.2,0.8-0.9,0.6-1.4c-0.1-0.3-0.3-0.5-0.6-0.6c-1.1-0.6-2.4-0.6-3.5,0c-0.6,0.2-0.8,0.9-0.6,1.4
		c0.1,0.3,0.3,0.5,0.6,0.6c0.5,0.2,1,0.4,1.5,0.4v27.9l-14.2,8.2v-49.8h-0.6v85.1l28.3,16.4l-10.2,5.9l-37-21.4v-50.9l-17.8-10.3
		v-19.2l-15.7-9.1c0.7-0.6,0.6-1.4-0.3-1.9c-1.1-0.6-2.4-0.6-3.5,0c-0.6,0.2-0.8,0.9-0.6,1.4c0.1,0.3,0.3,0.5,0.6,0.6
		c1,0.5,2.2,0.5,3.2,0.1l15.7,9.1v19.2l17.8,10.3v50.9l37,21.4l-7.5,4.4l-50-28.9v-43.4l-0.1-0.1l-44.2-25.5
		c0.7-0.6,0.6-1.4-0.3-1.9c-1.1-0.6-2.4-0.6-3.5,0c-0.6,0.2-0.9,0.8-0.7,1.4c0.1,0.3,0.4,0.6,0.7,0.7c1,0.5,2.2,0.5,3.2,0.1
		l44.4,25.6v43.4l0.1,0.1l49.9,28.8l-12.2,7l-83.1-48v-21.6l-0.1-0.1l-69.6-40.2c0.7-0.6,0.6-1.4-0.3-1.9c-1.1-0.6-2.4-0.6-3.5,0
		c-0.6,0.2-0.8,0.9-0.6,1.4c0.1,0.3,0.3,0.5,0.6,0.6c1,0.5,2.2,0.6,3.2,0.1l69.7,40.3v21.6l0.1,0.1l46.6,26.9h-37l-42.8-24.7
		c0.7-0.6,0.6-1.4-0.3-1.9c-1.1-0.6-2.4-0.6-3.5,0c-0.6,0.2-0.8,0.9-0.6,1.4c0.1,0.3,0.3,0.5,0.6,0.6c1,0.5,2.2,0.6,3.2,0.1L472,257
		h38.1l35.4,20.4l-14.2,8.3l-30.4-17.6H452l-55.5-31.9h-30.8l-12.6-7.3c0.7-0.6,0.6-1.4-0.3-1.9c-1.1-0.6-2.4-0.6-3.5,0
		c-0.6,0.2-0.8,0.9-0.6,1.4c0.1,0.3,0.3,0.5,0.6,0.6c1,0.5,2.2,0.6,3.2,0.1l13,7.5h30.8l42,24.3H402l-17.5-10.1
		c0.7-0.6,0.6-1.4-0.3-1.9c-1.1-0.6-2.4-0.6-3.5,0c-0.6,0.2-0.8,0.9-0.6,1.4c0.1,0.3,0.3,0.5,0.6,0.6c1,0.5,2.2,0.6,3.2,0.1
		l17.9,10.3h37.4l12.6,7.3h48.9l8.5,4.9h-20.8h0.1l-10.4,6h-43.4l-12.3-6.9h-24.5c-0.1-0.3-0.4-0.6-0.7-0.7c-1.1-0.6-2.4-0.6-3.5,0
		c-0.6,0.2-0.8,0.9-0.6,1.4c0.1,0.3,0.3,0.5,0.6,0.6c1.1,0.6,2.4,0.6,3.5,0c0.3-0.2,0.5-0.4,0.7-0.7h24.4l12.3,7.1h42.6l-11.7,6.8
		c-1-0.4-2.2-0.4-3.2,0.1c-0.6,0.2-0.8,0.9-0.6,1.4c0.1,0.3,0.3,0.5,0.6,0.6c1.1,0.6,2.4,0.6,3.5,0c0.9-0.5,1-1.3,0.3-1.9l22.8-13.1
		h21.6l20.6,11.9l-7.6,4.4l0.4,0.2l4.5,2.6h-14.2l-18.6-10.7c0.7-0.6,0.6-1.4-0.3-1.9c-1.1-0.6-2.4-0.6-3.5,0
		c-0.6,0.2-0.8,0.9-0.6,1.4c0.1,0.3,0.3,0.5,0.6,0.6c1,0.5,2.2,0.6,3.2,0.1l19,11h15.3l10.4,6l-6.4,3.7H522h-0.1l-9.9,5.7h-7.5
		l-16.8-9.7c0.8-0.6,0.7-1.4-0.2-1.9c-1.1-0.6-2.4-0.6-3.5,0c-0.6,0.2-0.9,0.8-0.7,1.4c0.1,0.3,0.4,0.6,0.7,0.7
		c1,0.5,2.1,0.6,3.2,0.2l17.2,9.9h7.7h0.1l9.9-5.7h10.2l-20.4,11.8h-11l-23-13.3h-69.3l-43-24.8c0.7-0.6,0.7-1.4-0.2-1.9
		c-1.1-0.6-2.4-0.6-3.5,0c-0.6,0.2-0.9,0.8-0.7,1.4c0.1,0.3,0.4,0.6,0.7,0.7c1,0.5,2.2,0.6,3.2,0.2l43.4,25.1h69.4l23,13.3h11.3h0.1
		l28.1-16.2l7.4,4.3L516,323h-22.4l-18.8-10.8h-47.5c-0.1-0.3-0.4-0.6-0.7-0.7c-1.1-0.6-2.4-0.6-3.5,0c-0.6,0.2-0.8,0.9-0.6,1.4
		c0.1,0.3,0.3,0.5,0.6,0.6c1.1,0.6,2.4,0.6,3.5,0c0.3-0.2,0.5-0.4,0.7-0.7h47.3l17.5,10.1h-66.9h-0.1l-63.6,36.7
		c-1-0.4-2.2-0.4-3.2,0.1c-0.6,0.2-0.8,0.9-0.6,1.4c0.1,0.3,0.3,0.5,0.6,0.6c1.1,0.6,2.4,0.6,3.5,0c0.9-0.5,1-1.3,0.3-1.9l63.3-36.4
		h90.4h0.1l32.1-18.5l8.4,4.8l-44.3,25.5h-78H434l-68.3,39.5h-79.6l-46.4-26.8c0.7-0.6,0.6-1.4-0.3-1.9c-1.1-0.6-2.4-0.6-3.5,0
		c-0.6,0.2-0.8,0.9-0.6,1.4c0.1,0.3,0.3,0.5,0.6,0.6c1,0.5,2.2,0.6,3.2,0.1l46.8,27h79.9h0.1l68.3-39.5H491l-83.5,48.2v12.7
		l-33.3,19.2c-1-0.4-2.2-0.4-3.2,0.1c-0.6,0.2-0.9,0.8-0.7,1.4c0.1,0.3,0.4,0.6,0.7,0.7c1.1,0.6,2.4,0.6,3.5,0
		c0.9-0.5,1-1.3,0.3-1.9l33.3-19.2v-12.6l84-48.5h19.5l-42,24.3v5.4L449.5,377c-1.1-0.4-2.2-0.4-3.2,0.1c-0.6,0.2-0.8,0.9-0.6,1.4
		c0.1,0.3,0.3,0.5,0.6,0.6c1.1,0.6,2.4,0.6,3.5,0c0.9-0.5,1-1.3,0.3-1.9l10.9-6.3v14.6l-63.2,36.7c-1-0.4-2.2-0.4-3.2,0.1
		c-0.6,0.2-0.9,0.8-0.7,1.4c0.1,0.3,0.4,0.6,0.7,0.7c1.1,0.6,2.4,0.6,3.5,0c0.9-0.5,1-1.3,0.3-1.9l63.2-36.5v-15.3l8.6-5v-5.4
		l42.4-24.4l-0.1-0.2L557,310l8.1,4.7l-45.7,26.4v43.4l-84.1,48.6h1.2l69.6-40.2v39.3l-1.6,0.9h1.1l1-0.6v-39.9l13.4-7.7v-43.4
		l45.7-26.4l7.1,4.1l-35.3,20.3v23.8l0.1,0.1l40.1,23.1v8.1L555,407.7c-1-0.4-2.2-0.4-3.2,0.1c-0.6,0.2-0.8,0.9-0.6,1.4
		c0.1,0.3,0.3,0.5,0.6,0.6c1.1,0.6,2.4,0.6,3.5,0c0.9-0.5,1-1.3,0.3-1.9l22.7-13.1v-8.6l-0.1-0.1L538.1,363v-23.1l26.6-15.4v9.9
		l-12.2,7.1c-1-0.4-2.2-0.4-3.2,0.1c-0.6,0.2-0.9,0.8-0.7,1.4c0.1,0.3,0.4,0.6,0.7,0.7c1.1,0.6,2.4,0.6,3.5,0c0.9-0.5,1-1.3,0.3-1.9
		l12.2-7v-10.6l8.1-4.6l9.5,5.5v17.3l-18,10.4v12l0.1,0.1l37.8,21.8c-0.7,0.6-0.6,1.4,0.3,1.9c1.1,0.6,2.4,0.6,3.5,0
		c0.6-0.2,0.8-0.9,0.6-1.4c-0.1-0.3-0.3-0.5-0.6-0.6c-1-0.5-2.2-0.6-3.2-0.2l-38-21.9v-11.3l17.4-10.1V355l23.3,13.5
		c-0.7,0.6-0.6,1.4,0.3,1.9c1.1,0.6,2.4,0.6,3.5,0c0.6-0.2,0.8-0.9,0.6-1.4c-0.1-0.3-0.3-0.5-0.6-0.6c-1-0.5-2.2-0.5-3.2-0.1
		l-23.3-13.5v-29.2l6.7,3.9l0.1-0.1l10.9-6.3l10,5.8v14l26.5,15.3v13.2c-0.5,0-1,0.2-1.5,0.4c-0.6,0.2-0.9,0.8-0.7,1.4
		c0.1,0.3,0.4,0.6,0.7,0.7c1.1,0.6,2.4,0.6,3.5,0c0.6-0.2,0.9-0.8,0.7-1.4c-0.1-0.3-0.3-0.5-0.7-0.7c-0.5-0.2-1-0.4-1.5-0.4v-13.5
		l-26.5-15.3v-13.4l43,24.8v26.3l-23.3,13.5h-21.4h-0.1L573.1,415c-1-0.4-2.2-0.4-3.2,0.1c-0.6,0.2-0.9,0.8-0.7,1.4
		c0.1,0.3,0.4,0.6,0.7,0.7c1.1,0.6,2.4,0.6,3.5,0c0.9-0.5,1-1.3,0.3-1.9l36.4-21h20.3L563,433.2c-1-0.4-2.2-0.4-3.2,0.1l0,0h4.1
		l91.4-52.8v-26.9l-0.1-0.1l-53.4-30.8l10.7-6.2l91.1,52.6v31.4l31.1,18c-0.7,0.6-0.6,1.4,0.3,1.9c1.1,0.6,2.4,0.6,3.5,0
		c0.6-0.2,0.9-0.8,0.7-1.4c-0.1-0.3-0.4-0.6-0.7-0.7c-1-0.5-2.2-0.5-3.2-0.1l-31.1-18v-31.4l-0.1-0.1l-91-52.5l10.2-5.9l90.1,52
		h53.8l2.5,1.5v-0.6l-2.4-1.4h-53.8l-76.1-43.9h15.3l26,15h20h0.1l27.7-16c1,0.4,2.2,0.4,3.2-0.1c0.6-0.2,0.9-0.8,0.7-1.4
		c-0.1-0.3-0.4-0.6-0.7-0.7c-1.1-0.6-2.4-0.6-3.5,0c-0.9,0.5-1,1.3-0.3,1.9l-27.4,15.5h-19.7l-26-15h-16.5l-12.7-7.3l27.3-15.8
		l7.8,4.5v11.7l19.7,11.4c-0.7,0.6-0.6,1.4,0.3,1.9c1.1,0.6,2.4,0.6,3.5,0c0.6-0.2,0.8-0.9,0.6-1.4c-0.1-0.3-0.3-0.5-0.6-0.6
		c-1-0.5-2.2-0.5-3.2-0.1L659.3,310v-11.1l21,12.1h10h0.1l11.9-6.9c1,0.4,2.2,0.4,3.2-0.1c0.6-0.2,0.9-0.8,0.7-1.4
		c-0.1-0.3-0.4-0.6-0.7-0.7c-1.1-0.6-2.4-0.6-3.5,0c-0.9,0.5-1,1.3-0.3,1.9l-11.5,6.6h-9.7l-29-16.7l5.3-3l-0.4-0.3L640,281l7.9-4.5
		h11.9l8.5,4.9c-0.7,0.6-0.6,1.3,0.3,1.8c1.1,0.6,2.4,0.6,3.5,0c0.6-0.2,0.8-0.9,0.6-1.4c-0.1-0.3-0.3-0.5-0.6-0.6
		c-1-0.5-2.2-0.6-3.3-0.1l-8.9-5.1h-11l20-11.6l47.2,27.2H750h0.1l19.1-11c0.1,0,0.3,0.1,0.4,0.1v-2.6c-0.2,0.1-0.5,0.2-0.7,0.3
		c-0.9,0.5-1,1.3-0.3,1.9l-18.8,10.8h-33.6l-36.4-21h15.7l15.2,8.8c-0.7,0.6-0.6,1.4,0.3,1.9c1.1,0.6,2.4,0.6,3.5,0
		c0.6-0.2,0.9-0.8,0.7-1.4c-0.1-0.3-0.4-0.6-0.7-0.7c-1-0.5-2.2-0.5-3.2-0.1l-15.6-9H679l-9.4-5.4l23.9-13.8h76.2v-0.6h-75.2
		l9.5-5.5h56.6h0.1l9-5.2v-0.9l-9.3,5.3h-56.6h-0.1l-64.2,37l-7.2-4l67.5-39h49.3h0.1l20.3-11.7v-0.6L749,237h-49.3h-0.1l-67.8,39.2
		l-8.1-4.7l131.6-76v-27.6l14.3-8.2L769.6,159.1L769.6,159.1z M655.8,290.6l-65.7,37.9l-65.7-37.9l65.7-37.9L655.8,290.6z"/>
</g>
</svg>
